<svg width="40" height="40" viewBox="0 0 40 40" fill="none" xmlns="http://www.w3.org/2000/svg">
<path fill-rule="evenodd" clip-rule="evenodd" d="M26.0628 5H13.9372C9.00919 5 5 9.00919 5 13.9372V26.0628C5 30.9908 9.00919 35 13.9372 35H26.0628C30.9908 35 35 30.9908 35 26.0628V13.9372C34.9999 9.00919 30.9908 5 26.0628 5ZM31.982 26.0628C31.982 29.3319 29.3319 31.982 26.0628 31.982H13.9372C10.6681 31.982 8.018 29.3319 8.018 26.0628V13.9372C8.018 10.6681 10.6681 8.018 13.9372 8.018H26.0628C29.3319 8.018 31.982 10.6681 31.982 13.9372V26.0628ZM20.0003 12.2408C15.7219 12.2408 12.2412 15.7215 12.2412 19.9998C12.2412 24.2781 15.7219 27.7589 20.0003 27.7589C24.2786 27.7589 27.7593 24.2782 27.7593 19.9998C27.7593 15.7215 24.2786 12.2408 20.0003 12.2408ZM20.0003 24.7409C17.3818 24.7409 15.2592 22.6183 15.2592 19.9999C15.2592 17.3814 17.3819 15.2588 20.0003 15.2588C22.6187 15.2588 24.7413 17.3814 24.7413 19.9999C24.7413 22.6183 22.6187 24.7409 20.0003 24.7409ZM29.6332 12.2993C29.6332 13.3261 28.8008 14.1585 27.7739 14.1585C26.7471 14.1585 25.9147 13.3261 25.9147 12.2993C25.9147 11.2725 26.7471 10.4401 27.7739 10.4401C28.8008 10.4401 29.6332 11.2725 29.6332 12.2993Z" fill="#733CAE"/>
</svg>
