<svg width="40" height="40" viewBox="0 0 40 40" fill="none" xmlns="http://www.w3.org/2000/svg">
<path d="M12.6357 33.3332H7.10704V15.5292H12.6357V33.3332ZM9.86837 13.1006C8.1005 13.1006 6.66656 11.6363 6.66656 9.86836C6.66656 8.10002 8.10006 6.6665 9.86837 6.6665C11.6367 6.6665 13.0702 8.10002 13.0702 9.86836C13.0702 11.6363 11.6356 13.1006 9.86837 13.1006ZM33.3275 33.3332H27.8108V24.6663C27.8108 22.6008 27.7691 19.9519 24.9363 19.9519C22.0619 19.9519 21.6214 22.196 21.6214 24.5175V33.3332H16.0988V15.5292H21.4012V17.9578H21.4786C22.2167 16.559 24.0197 15.0828 26.7096 15.0828C32.3048 15.0828 33.3334 18.7674 33.3334 23.5532V33.3332H33.3275Z" fill="#733CAE"/>
</svg>
