<svg width="40" height="40" viewBox="0 0 40 40" fill="none" xmlns="http://www.w3.org/2000/svg">
<path fill-rule="evenodd" clip-rule="evenodd" d="M29.8276 8.70047C27.8518 6.61483 24.6482 6.61483 22.6724 8.70047L16.6009 15.1092C14.6251 17.1948 14.6251 20.5763 16.6009 22.662C17.0204 23.1047 17.4933 23.4522 17.9969 23.7061C18.5012 23.9604 18.7147 24.5981 18.4738 25.1303C18.2329 25.6626 17.6289 25.888 17.1246 25.6337C16.4166 25.2767 15.754 24.7891 15.1699 24.1725C12.4037 21.2526 12.4037 16.5185 15.1699 13.5987L21.2413 7.18992C24.0075 4.27003 28.4925 4.27003 31.2587 7.18992C34.0249 10.1098 34.0249 14.8439 31.2587 17.7638L28.8882 20.266C28.493 20.6831 27.8523 20.6831 27.4571 20.266C27.0619 19.8489 27.0619 19.1726 27.4571 18.7554L29.8276 16.2532C31.8035 14.1676 31.8035 10.7861 29.8276 8.70047ZM19.8595 14.7771C20.1004 14.2448 20.7045 14.0194 21.2088 14.2737C21.9168 14.6307 22.5793 15.1183 23.1634 15.7349C25.9296 18.6548 25.9296 23.3889 23.1634 26.3088L17.092 32.7175C14.3258 35.6374 9.84087 35.6374 7.07466 32.7175C4.30845 29.7976 4.30845 25.0635 7.07466 22.1436L9.44518 19.6414C9.84035 19.2243 10.4811 19.2243 10.8762 19.6414C11.2714 20.0585 11.2714 20.7348 10.8762 21.152L8.50571 23.6542C6.52984 25.7398 6.52984 29.1213 8.50571 31.2069C10.4816 33.2926 13.6851 33.2926 15.661 31.2069L21.7324 24.7982C23.7083 22.7126 23.7083 19.3311 21.7324 17.2454C21.313 16.8027 20.84 16.4552 20.3364 16.2013C19.8321 15.947 19.6186 15.3094 19.8595 14.7771Z" fill="#733CAE"/>
</svg>
