<svg width="40" height="40" viewBox="0 0 40 40" fill="none" xmlns="http://www.w3.org/2000/svg">
<path fill-rule="evenodd" clip-rule="evenodd" d="M20.055 33.2312H20.0495C17.8273 33.2304 15.6438 32.6729 13.7045 31.615L6.66585 33.4614L8.54951 26.5811C7.38757 24.5675 6.77617 22.2834 6.77717 19.9432C6.78008 12.6225 12.7364 6.6665 20.0549 6.6665C23.6068 6.66804 26.9405 8.05078 29.4473 10.5605C31.9541 13.0701 33.3339 16.406 33.3325 19.9537C33.3296 27.2728 27.3756 33.2282 20.055 33.2312ZM14.0306 29.2113L14.4336 29.4505C16.128 30.456 18.0702 30.988 20.0505 30.9888H20.055C26.1376 30.9888 31.0882 26.0381 31.0907 19.953C31.0918 17.0041 29.945 14.2315 27.8614 12.1455C25.7779 10.0595 23.007 8.91015 20.0593 8.90912C13.972 8.90912 9.02136 13.8594 9.01894 19.944C9.01809 22.0293 9.60154 24.0601 10.7062 25.8171L10.9686 26.2346L9.85378 30.307L14.0306 29.2113ZM26.2898 22.8124C26.5212 22.9242 26.6774 22.9997 26.7442 23.1111C26.8271 23.2494 26.8271 23.9137 26.5507 24.6887C26.2742 25.4637 24.9488 26.171 24.3113 26.2662C23.7398 26.3516 23.0165 26.3873 22.2217 26.1347C21.7399 25.9818 21.122 25.7777 20.3304 25.4359C17.2202 24.0929 15.1184 21.0784 14.7211 20.5087C14.6933 20.4688 14.6738 20.4409 14.663 20.4264L14.6603 20.4228C14.4847 20.1886 13.3083 18.6189 13.3083 16.9944C13.3083 15.4663 14.059 14.6653 14.4045 14.2966C14.4282 14.2713 14.4499 14.2481 14.4694 14.2268C14.7735 13.8946 15.133 13.8116 15.3541 13.8116C15.5753 13.8116 15.7967 13.8136 15.99 13.8233C16.0138 13.8245 16.0387 13.8244 16.0643 13.8242C16.2576 13.8231 16.4987 13.8217 16.7364 14.3928C16.8279 14.6126 16.9618 14.9385 17.1029 15.2822C17.3884 15.9772 17.7038 16.7451 17.7593 16.8562C17.8423 17.0223 17.8976 17.2159 17.787 17.4375C17.7704 17.4707 17.755 17.502 17.7404 17.532C17.6573 17.7015 17.5962 17.8263 17.4552 17.9909C17.3998 18.0556 17.3425 18.1254 17.2852 18.1951C17.1711 18.3341 17.057 18.4731 16.9576 18.5721C16.7915 18.7376 16.6186 18.917 16.8121 19.2492C17.0056 19.5813 17.6715 20.6677 18.6577 21.5474C19.7179 22.4931 20.6394 22.8928 21.1064 23.0954C21.1976 23.1349 21.2715 23.167 21.3257 23.1941C21.6574 23.3602 21.8509 23.3324 22.0444 23.1111C22.238 22.8897 22.8738 22.1423 23.0949 21.8102C23.316 21.4782 23.5373 21.5335 23.8413 21.6442C24.1455 21.755 25.7766 22.5575 26.1084 22.7235C26.1731 22.756 26.2337 22.7852 26.2898 22.8124Z" fill="#733CAE"/>
</svg>
