<svg width="40" height="40" viewBox="0 0 40 40" fill="none" xmlns="http://www.w3.org/2000/svg">
<path d="M35.9701 12.0007C35.5868 10.5572 34.4573 9.42035 33.0231 9.03454C30.4236 8.3335 20 8.3335 20 8.3335C20 8.3335 9.57642 8.3335 6.97688 9.03454C5.54274 9.42041 4.41322 10.5572 4.02986 12.0007C3.33333 14.6171 3.33333 20.0759 3.33333 20.0759C3.33333 20.0759 3.33333 25.5348 4.02986 28.1512C4.41322 29.5946 5.54274 30.6841 6.97688 31.0699C9.57642 31.771 20 31.771 20 31.771C20 31.771 30.4236 31.771 33.0231 31.0699C34.4573 30.6841 35.5868 29.5946 35.9701 28.1512C36.6667 25.5348 36.6667 20.0759 36.6667 20.0759C36.6667 20.0759 36.6667 14.6171 35.9701 12.0007ZM16.5909 25.0321V15.1197L25.303 20.076L16.5909 25.0321Z" fill="#733CAE"/>
</svg>
