<svg width="1440" height="1016" viewBox="0 0 1440 1016" fill="none" xmlns="http://www.w3.org/2000/svg">
<path fill-rule="evenodd" clip-rule="evenodd" d="M1754 959.952L1667.79 977.97C1581.58 995.988 1409.17 1032.02 1236.75 1008C1064.33 983.976 891.918 899.893 719.501 893.887C547.085 887.881 374.668 959.952 202.252 977.97C29.8355 995.988 -142.581 959.952 -228.789 941.934L-314.997 923.917L-314.997 707.702L-228.789 707.702C-142.581 707.702 29.8355 707.702 202.252 707.702C374.668 707.702 547.085 707.702 719.501 707.702C891.918 707.702 1064.33 707.702 1236.75 707.702C1409.17 707.702 1581.58 707.702 1667.79 707.702L1754 707.702L1754 959.952Z" fill="#FAF3EA"/>
<rect x="-315" width="2069" height="707.702" fill="#FAF3EA"/>
</svg>
