<svg width="342" height="104" viewBox="0 0 342 104" fill="none" xmlns="http://www.w3.org/2000/svg">
<g clip-path="url(#clip0_2102_8666)">
<path fill-rule="evenodd" clip-rule="evenodd" d="M75.0137 17.342C81.6768 21.1915 81.677 30.8095 75.0141 34.6593L72.1008 36.3426C67.1485 39.204 61.0454 39.2043 56.0929 36.3434L44.9971 29.9337V0L75.0137 17.342Z" fill="#733CAE"/>
<path fill-rule="evenodd" clip-rule="evenodd" d="M44.9972 0V29.9337L25.9031 40.9672L0 26.0003L44.9972 0Z" fill="#643498"/>
<path fill-rule="evenodd" clip-rule="evenodd" d="M25.9031 40.9671V63.0329L0 77.9985V26.0002L25.9031 40.9671Z" fill="#4B2772"/>
<path fill-rule="evenodd" clip-rule="evenodd" d="M44.9972 74.0663V104L0 77.9985L25.9031 63.0328L44.9972 74.0663Z" fill="#321A4C"/>
<path fill-rule="evenodd" clip-rule="evenodd" d="M75.0135 69.3399C81.6767 73.1895 81.6767 82.8075 75.0137 86.6573L44.9971 104V74.0663L56.0932 67.6564C61.0456 64.7956 67.1485 64.7958 72.1007 67.657L75.0135 69.3399Z" fill="#190D26"/>
</g>
<path d="M98.96 58.66C98.96 56.0933 99.4033 53.6667 100.29 51.38C101.177 49.0933 102.46 47.0867 104.14 45.36C105.82 43.6333 107.85 42.2567 110.23 41.23C112.61 40.2033 115.293 39.69 118.28 39.69C122.293 39.69 125.7 40.5533 128.5 42.28C131.347 44.0067 133.47 46.27 134.87 49.07L125.7 51.87C124.907 50.5167 123.857 49.49 122.55 48.79C121.243 48.0433 119.797 47.67 118.21 47.67C116.857 47.67 115.597 47.95 114.43 48.51C113.263 49.0233 112.237 49.77 111.35 50.75C110.51 51.6833 109.833 52.8267 109.32 54.18C108.853 55.5333 108.62 57.0267 108.62 58.66C108.62 60.2933 108.877 61.7867 109.39 63.14C109.903 64.4933 110.58 65.66 111.42 66.64C112.307 67.62 113.333 68.39 114.5 68.95C115.667 69.4633 116.903 69.72 118.21 69.72C119.89 69.72 121.43 69.3 122.83 68.46C124.277 67.62 125.28 66.5933 125.84 65.38L135.01 68.18C133.75 70.98 131.673 73.2667 128.78 75.04C125.887 76.8133 122.41 77.7 118.35 77.7C115.363 77.7 112.68 77.1867 110.3 76.16C107.92 75.1333 105.89 73.7567 104.21 72.03C102.53 70.2567 101.223 68.2267 100.29 65.94C99.4033 63.6067 98.96 61.18 98.96 58.66ZM157.38 77.7C154.393 77.7 151.71 77.1867 149.33 76.16C146.95 75.1333 144.92 73.7567 143.24 72.03C141.607 70.2567 140.347 68.2267 139.46 65.94C138.573 63.6533 138.13 61.25 138.13 58.73C138.13 56.1633 138.573 53.7367 139.46 51.45C140.347 49.1633 141.607 47.1567 143.24 45.43C144.92 43.6567 146.95 42.2567 149.33 41.23C151.71 40.2033 154.393 39.69 157.38 39.69C160.367 39.69 163.027 40.2033 165.36 41.23C167.74 42.2567 169.747 43.6567 171.38 45.43C173.06 47.1567 174.343 49.1633 175.23 51.45C176.117 53.7367 176.56 56.1633 176.56 58.73C176.56 61.25 176.117 63.6533 175.23 65.94C174.343 68.2267 173.083 70.2567 171.45 72.03C169.817 73.7567 167.81 75.1333 165.43 76.16C163.05 77.1867 160.367 77.7 157.38 77.7ZM147.79 58.73C147.79 60.3633 148.023 61.8567 148.49 63.21C149.003 64.5167 149.68 65.66 150.52 66.64C151.407 67.62 152.433 68.39 153.6 68.95C154.767 69.4633 156.027 69.72 157.38 69.72C158.733 69.72 159.993 69.4633 161.16 68.95C162.327 68.39 163.33 67.62 164.17 66.64C165.057 65.66 165.733 64.4933 166.2 63.14C166.713 61.7867 166.97 60.2933 166.97 58.66C166.97 57.0733 166.713 55.6033 166.2 54.25C165.733 52.8967 165.057 51.73 164.17 50.75C163.33 49.77 162.327 49.0233 161.16 48.51C159.993 47.95 158.733 47.67 157.38 47.67C156.027 47.67 154.767 47.95 153.6 48.51C152.433 49.07 151.407 49.84 150.52 50.82C149.68 51.8 149.003 52.9667 148.49 54.32C148.023 55.6733 147.79 57.1433 147.79 58.73ZM197.241 77.21C194.768 77.21 192.528 76.72 190.521 75.74C188.514 74.76 186.764 73.43 185.271 71.75C183.824 70.0233 182.704 68.04 181.911 65.8C181.118 63.56 180.721 61.18 180.721 58.66C180.721 56 181.141 53.5267 181.981 51.24C182.821 48.9533 183.988 46.9467 185.481 45.22C186.974 43.4933 188.771 42.14 190.871 41.16C192.971 40.18 195.281 39.69 197.801 39.69C200.648 39.69 203.144 40.3433 205.291 41.65C207.438 42.91 209.211 44.6133 210.611 46.76V40.32H218.801V75.25C218.801 77.9567 218.288 80.3833 217.261 82.53C216.234 84.6767 214.811 86.4967 212.991 87.99C211.218 89.4833 209.071 90.6267 206.551 91.42C204.078 92.2133 201.371 92.61 198.431 92.61C194.418 92.61 191.034 91.9333 188.281 90.58C185.574 89.2733 183.241 87.4067 181.281 84.98L186.391 80.01C187.791 81.7367 189.541 83.09 191.641 84.07C193.788 85.05 196.051 85.54 198.431 85.54C199.878 85.54 201.254 85.33 202.561 84.91C203.914 84.5367 205.104 83.93 206.131 83.09C207.158 82.25 207.951 81.1767 208.511 79.87C209.118 78.5633 209.421 77.0233 209.421 75.25V70.63C208.208 72.73 206.504 74.3633 204.311 75.53C202.118 76.65 199.761 77.21 197.241 77.21ZM200.391 69.72C201.418 69.72 202.398 69.5567 203.331 69.23C204.264 68.9033 205.128 68.46 205.921 67.9C206.714 67.34 207.414 66.6867 208.021 65.94C208.628 65.1933 209.094 64.4 209.421 63.56V54.81C208.581 52.6633 207.251 50.9367 205.431 49.63C203.658 48.3233 201.791 47.67 199.831 47.67C198.384 47.67 197.078 47.9967 195.911 48.65C194.744 49.2567 193.741 50.0967 192.901 51.17C192.061 52.1967 191.408 53.3867 190.941 54.74C190.521 56.0933 190.311 57.4933 190.311 58.94C190.311 60.4333 190.568 61.8333 191.081 63.14C191.594 64.4467 192.294 65.59 193.181 66.57C194.114 67.55 195.188 68.32 196.401 68.88C197.614 69.44 198.944 69.72 200.391 69.72ZM261.346 77H251.966V56.42C251.966 53.48 251.453 51.3333 250.426 49.98C249.4 48.6267 247.976 47.95 246.156 47.95C245.223 47.95 244.266 48.1367 243.286 48.51C242.306 48.8833 241.373 49.42 240.486 50.12C239.646 50.7733 238.876 51.5667 238.176 52.5C237.476 53.4333 236.963 54.46 236.636 55.58V77H227.256V40.32H235.726V47.11C237.08 44.7767 239.04 42.9567 241.606 41.65C244.173 40.3433 247.066 39.69 250.286 39.69C252.573 39.69 254.44 40.11 255.886 40.95C257.333 41.79 258.453 42.8867 259.246 44.24C260.04 45.5933 260.576 47.1333 260.856 48.86C261.183 50.5867 261.346 52.3367 261.346 54.11V77ZM269.502 77V40.32H278.882V77H269.502ZM269.502 35.21V25.9H278.882V35.21H269.502ZM287.344 77V40.32H296.724V77H287.344ZM287.344 35.21V25.9H296.724V35.21H287.344ZM315.196 77.7C313.423 77.7 311.766 77.42 310.226 76.86C308.686 76.2533 307.356 75.4367 306.236 74.41C305.116 73.3367 304.229 72.1 303.576 70.7C302.969 69.3 302.666 67.76 302.666 66.08C302.666 64.3533 303.039 62.7667 303.786 61.32C304.579 59.8267 305.653 58.5667 307.006 57.54C308.406 56.5133 310.063 55.72 311.976 55.16C313.889 54.5533 315.989 54.25 318.276 54.25C319.909 54.25 321.496 54.39 323.036 54.67C324.623 54.95 326.023 55.3467 327.236 55.86V53.76C327.236 51.3333 326.536 49.4667 325.136 48.16C323.783 46.8533 321.753 46.2 319.046 46.2C317.086 46.2 315.173 46.55 313.306 47.25C311.439 47.95 309.526 48.9767 307.566 50.33L304.696 44.38C309.409 41.2533 314.496 39.69 319.956 39.69C325.229 39.69 329.313 40.9967 332.206 43.61C335.146 46.1767 336.616 49.91 336.616 54.81V66.22C336.616 67.2 336.779 67.9 337.106 68.32C337.479 68.74 338.063 68.9733 338.856 69.02V77C337.269 77.3267 335.893 77.49 334.726 77.49C332.953 77.49 331.576 77.0933 330.596 76.3C329.663 75.5067 329.079 74.4567 328.846 73.15L328.636 71.12C327.003 73.2667 325.019 74.9 322.686 76.02C320.353 77.14 317.856 77.7 315.196 77.7ZM317.856 70.84C319.443 70.84 320.936 70.56 322.336 70C323.783 69.44 324.903 68.6933 325.696 67.76C326.723 66.9667 327.236 66.08 327.236 65.1V60.9C326.116 60.48 324.903 60.1533 323.596 59.92C322.289 59.64 321.029 59.5 319.816 59.5C317.389 59.5 315.406 60.06 313.866 61.18C312.326 62.2533 311.556 63.63 311.556 65.31C311.556 66.8967 312.163 68.2267 313.376 69.3C314.589 70.3267 316.083 70.84 317.856 70.84Z" fill="#321A4C"/>
<defs>
<clipPath id="clip0_2102_8666">
<rect width="90" height="104" fill="white"/>
</clipPath>
</defs>
</svg>
