<svg width="1920" height="489" viewBox="0 0 1920 489" fill="none" xmlns="http://www.w3.org/2000/svg">
<path fill-rule="evenodd" clip-rule="evenodd" d="M0 139.992L80 121.992C160 103.992 320 67.992 480 91.992C640 115.992 800 199.992 960 205.992C1120 211.992 1280 139.992 1440 121.992C1600 103.992 1760 139.992 1840 157.992L1920 175.992V308.5H1840C1760 308.5 1600 308.5 1440 308.5C1280 308.5 1120 308.5 960 308.5C800 308.5 640 308.5 480 308.5C320 308.5 160 308.5 80 308.5H0L0 139.992Z" fill="#FAF3EA"/>
<rect y="308" width="1920" height="181" fill="#FAF3EA"/>
</svg>
