<svg width="291" height="546" viewBox="0 0 291 546" fill="none" xmlns="http://www.w3.org/2000/svg">
<path d="M63.6401 412.737C66.5794 411.04 70.2008 411.04 73.1401 412.737L122.282 441.109C125.222 442.806 127.032 445.942 127.032 449.336L127.032 506.081C127.032 509.475 125.222 512.611 122.282 514.308L73.1401 542.68C70.2008 544.377 66.5794 544.377 63.6401 542.68L14.4979 514.308C11.5586 512.611 9.74793 509.475 9.74793 506.081L9.74795 449.336C9.74795 445.942 11.5586 442.806 14.498 441.109L63.6401 412.737Z" stroke="#3B4EAD"/>
<mask id="path-2-inside-1_128_1811" fill="white">
<path fill-rule="evenodd" clip-rule="evenodd" d="M191.423 539.593C191.423 542.485 188.927 544.935 186.423 543.489L137.281 515.117C134.187 513.331 132.281 510.029 132.281 506.457L132.281 449.712C132.281 446.14 134.187 442.838 137.281 441.052L186.423 412.68C188.927 411.234 191.423 413.684 191.423 416.575L191.423 539.593Z"/>
</mask>
<path d="M137.281 515.117L136.781 515.983L137.281 515.117ZM132.281 506.457L131.281 506.457L132.281 506.457ZM132.281 449.712L133.281 449.712L132.281 449.712ZM137.281 441.052L136.781 440.186L137.281 441.052ZM186.923 542.623L137.781 514.251L136.781 515.983L185.923 544.355L186.923 542.623ZM137.781 514.251C134.996 512.643 133.281 509.672 133.281 506.457L131.281 506.457C131.281 510.387 133.378 514.018 136.781 515.983L137.781 514.251ZM133.281 506.457L133.281 449.712L131.281 449.712L131.281 506.457L133.281 506.457ZM133.281 449.712C133.281 446.497 134.997 443.526 137.781 441.918L136.781 440.186C133.378 442.151 131.281 445.782 131.281 449.712L133.281 449.712ZM137.781 441.918L186.923 413.546L185.923 411.814L136.781 440.186L137.781 441.918ZM190.423 416.575L190.423 539.593L192.423 539.593L192.423 416.575L190.423 416.575ZM186.923 413.546C187.766 413.059 188.56 413.209 189.216 413.764C189.911 414.353 190.423 415.401 190.423 416.575L192.423 416.575C192.423 414.859 191.687 413.236 190.508 412.238C189.29 411.207 187.585 410.854 185.923 411.814L186.923 413.546ZM185.923 544.355C187.585 545.315 189.29 544.962 190.508 543.931C191.687 542.933 192.423 541.31 192.423 539.593L190.423 539.593C190.423 540.768 189.911 541.816 189.216 542.405C188.56 542.96 187.766 543.11 186.923 542.623L185.923 544.355Z" fill="#643498" mask="url(#path-2-inside-1_128_1811)"/>
<path d="M323.634 412.304C320.54 410.517 316.728 410.517 313.634 412.304L264.492 440.676C261.398 442.462 259.492 445.764 259.492 449.336L259.492 506.081C259.492 509.653 261.398 512.955 264.492 514.741L313.634 543.113C316.728 544.9 320.54 544.9 323.634 543.113L372.776 514.741C375.87 512.955 377.776 509.653 377.776 506.081L377.776 449.336C377.776 445.764 375.87 442.462 372.776 440.676L323.634 412.304Z" fill="#3B4EAD"/>
<path fill-rule="evenodd" clip-rule="evenodd" d="M195.602 539.593C195.602 542.485 198.097 544.935 200.601 543.489L249.743 515.117C252.837 513.331 254.743 510.029 254.743 506.457L254.743 449.712C254.743 446.14 252.837 442.838 249.743 441.052L200.601 412.68C198.097 411.234 195.602 413.684 195.602 416.575L195.602 539.593Z" fill="#643498"/>
<path fill-rule="evenodd" clip-rule="evenodd" d="M191.424 401.391C191.424 404.283 188.928 406.733 186.424 405.287L137.282 376.915C134.188 375.128 132.282 371.827 132.282 368.255L132.282 311.51C132.282 307.937 134.188 304.636 137.282 302.85L186.424 274.478C188.928 273.032 191.424 275.482 191.424 278.373L191.424 401.391Z" fill="#9767CB"/>
<path d="M63.4253 275.887C66.5193 274.1 70.3313 274.1 73.4253 275.887L122.567 304.259C125.661 306.045 127.567 309.347 127.567 312.919L127.567 369.664C127.567 373.236 125.661 376.538 122.567 378.324L73.4253 406.696C70.3312 408.483 66.5193 408.483 63.4253 406.696L14.2831 378.324C11.1891 376.538 9.28309 373.236 9.28309 369.664L9.2831 312.919C9.28311 309.347 11.1891 306.045 14.2831 304.259L63.4253 275.887Z" fill="#AD3B90"/>
<mask id="path-8-inside-2_128_1811" fill="white">
<path fill-rule="evenodd" clip-rule="evenodd" d="M195.602 401.391C195.602 404.283 198.097 406.733 200.601 405.287L249.743 376.915C252.837 375.128 254.743 371.827 254.743 368.255L254.743 311.51C254.743 307.937 252.837 304.636 249.743 302.85L200.601 274.478C198.097 273.032 195.602 275.482 195.602 278.373L195.602 401.391Z"/>
</mask>
<path d="M249.743 376.915L250.243 377.781L249.743 376.915ZM254.743 368.255L255.743 368.255L254.743 368.255ZM254.743 311.51L253.743 311.51L254.743 311.51ZM249.743 302.85L250.243 301.984L249.743 302.85ZM200.101 404.421L249.243 376.049L250.243 377.781L201.101 406.153L200.101 404.421ZM249.243 376.049C252.028 374.441 253.743 371.47 253.743 368.255L255.743 368.255C255.743 372.184 253.647 375.816 250.243 377.781L249.243 376.049ZM253.743 368.255L253.743 311.51L255.743 311.51L255.743 368.255L253.743 368.255ZM253.743 311.51C253.743 308.295 252.028 305.323 249.243 303.716L250.243 301.984C253.647 303.949 255.743 307.58 255.743 311.51L253.743 311.51ZM249.243 303.716L200.101 275.344L201.101 273.612L250.243 301.984L249.243 303.716ZM196.602 278.373L196.602 401.391L194.602 401.391L194.602 278.373L196.602 278.373ZM200.101 275.344C199.259 274.857 198.464 275.007 197.808 275.562C197.113 276.151 196.602 277.199 196.602 278.373L194.602 278.373C194.602 276.657 195.338 275.033 196.516 274.036C197.734 273.004 199.439 272.652 201.101 273.612L200.101 275.344ZM201.101 406.153C199.439 407.112 197.734 406.76 196.516 405.729C195.338 404.731 194.602 403.108 194.602 401.391L196.602 401.391C196.602 402.566 197.113 403.614 197.809 404.202C198.464 404.757 199.259 404.907 200.101 404.421L201.101 406.153Z" fill="#643498" mask="url(#path-8-inside-2_128_1811)"/>
<path d="M323.35 276.32C320.411 274.623 316.789 274.623 313.85 276.32L264.708 304.692C261.769 306.389 259.958 309.525 259.958 312.919L259.958 369.664C259.958 373.058 261.769 376.194 264.708 377.891L313.85 406.263C316.789 407.96 320.411 407.96 323.35 406.263L372.492 377.891C375.432 376.194 377.242 373.058 377.242 369.664L377.242 312.919C377.242 309.525 375.432 306.389 372.492 304.692L323.35 276.32Z" stroke="#AD3B90"/>
<path d="M63.3901 133.696C66.4841 135.483 70.2961 135.483 73.3901 133.696L122.532 105.324C125.626 103.538 127.532 100.236 127.532 96.6637L127.532 39.9192C127.532 36.3466 125.626 33.0453 122.532 31.259L73.3901 2.88673C70.2961 1.1004 66.4841 1.1004 63.3901 2.88673L14.2479 31.259C11.1539 33.0453 9.24793 36.3466 9.24793 39.9192L9.24795 96.6638C9.24795 100.236 11.1539 103.538 14.248 105.324L63.3901 133.696Z" fill="#3B4EAD"/>
<path fill-rule="evenodd" clip-rule="evenodd" d="M191.423 6.4066C191.423 3.51514 188.927 1.06508 186.423 2.5108L137.281 30.8831C134.187 32.6694 132.281 35.9707 132.281 39.5433L132.281 96.2878C132.281 99.8605 134.187 103.162 137.281 104.948L186.423 133.32C188.927 134.766 191.423 132.316 191.423 129.425L191.423 6.4066Z" fill="#643498"/>
<path d="M323.384 133.263C320.445 134.96 316.824 134.96 313.884 133.263L264.742 104.891C261.803 103.194 259.992 100.058 259.992 96.6637L259.992 39.9192C259.992 36.5252 261.803 33.389 264.742 31.692L313.884 3.31974C316.824 1.62272 320.445 1.62272 323.384 3.31975L372.526 31.692C375.466 33.389 377.276 36.5252 377.276 39.9192L377.276 96.6638C377.276 100.058 375.466 103.194 372.526 104.891L323.384 133.263Z" stroke="#3B4EAD"/>
<mask id="path-14-inside-3_128_1811" fill="white">
<path fill-rule="evenodd" clip-rule="evenodd" d="M195.602 6.4066C195.602 3.51514 198.097 1.06508 200.601 2.5108L249.743 30.8831C252.837 32.6694 254.743 35.9707 254.743 39.5433L254.743 96.2878C254.743 99.8605 252.837 103.162 249.743 104.948L200.601 133.32C198.097 134.766 195.602 132.316 195.602 129.425L195.602 6.4066Z"/>
</mask>
<path d="M249.743 30.8831L250.243 30.017L249.743 30.8831ZM254.743 39.5433L255.743 39.5433L254.743 39.5433ZM254.743 96.2878L253.743 96.2878L254.743 96.2878ZM249.743 104.948L250.243 105.814L249.743 104.948ZM200.101 3.37683L249.243 31.7491L250.243 30.017L201.101 1.64478L200.101 3.37683ZM249.243 31.7491C252.028 33.3568 253.743 36.3279 253.743 39.5433L255.743 39.5433C255.743 35.6134 253.647 31.982 250.243 30.017L249.243 31.7491ZM253.743 39.5433L253.743 96.2878L255.743 96.2878L255.743 39.5433L253.743 39.5433ZM253.743 96.2878C253.743 99.5032 252.028 102.474 249.243 104.082L250.243 105.814C253.647 103.849 255.743 100.218 255.743 96.2878L253.743 96.2878ZM249.243 104.082L200.101 132.454L201.101 134.186L250.243 105.814L249.243 104.082ZM196.602 129.425L196.602 6.4066L194.602 6.4066L194.602 129.425L196.602 129.425ZM200.101 132.454C199.259 132.941 198.464 132.791 197.808 132.236C197.113 131.647 196.602 130.599 196.602 129.425L194.602 129.425C194.602 131.141 195.338 132.764 196.516 133.762C197.734 134.793 199.439 135.146 201.101 134.186L200.101 132.454ZM201.101 1.64478C199.439 0.685395 197.734 1.03763 196.516 2.06906C195.338 3.06674 194.602 4.68994 194.602 6.4066L196.602 6.4066C196.602 5.2318 197.113 4.18424 197.809 3.59544C198.464 3.04041 199.259 2.89047 200.101 3.37683L201.101 1.64478Z" fill="#9767CB" mask="url(#path-14-inside-3_128_1811)"/>
<mask id="path-16-inside-4_128_1811" fill="white">
<path fill-rule="evenodd" clip-rule="evenodd" d="M191.424 144.608C191.424 141.716 188.928 139.266 186.424 140.712L137.282 169.084C134.188 170.871 132.282 174.172 132.282 177.745L132.282 234.489C132.282 238.062 134.188 241.363 137.282 243.149L186.424 271.521C188.928 272.967 191.424 270.517 191.424 267.626L191.424 144.608Z"/>
</mask>
<path d="M137.282 169.084L136.782 168.218L137.282 169.084ZM132.282 177.745L131.282 177.745L132.282 177.745ZM132.282 234.489L133.282 234.489L132.282 234.489ZM137.282 243.149L136.782 244.015L137.282 243.149ZM186.924 141.578L137.782 169.95L136.782 168.218L185.924 139.846L186.924 141.578ZM137.782 169.95C134.997 171.558 133.282 174.529 133.282 177.745L131.282 177.745C131.282 173.815 133.379 170.183 136.782 168.218L137.782 169.95ZM133.282 177.745L133.282 234.489L131.282 234.489L131.282 177.745L133.282 177.745ZM133.282 234.489C133.282 237.704 134.997 240.676 137.782 242.283L136.782 244.015C133.379 242.05 131.282 238.419 131.282 234.489L133.282 234.489ZM137.782 242.283L186.924 270.655L185.924 272.388L136.782 244.015L137.782 242.283ZM190.424 267.626L190.424 144.608L192.424 144.608L192.424 267.626L190.424 267.626ZM186.924 270.655C187.767 271.142 188.561 270.992 189.217 270.437C189.912 269.848 190.424 268.8 190.424 267.626L192.424 267.626C192.424 269.342 191.688 270.966 190.509 271.963C189.291 272.995 187.586 273.347 185.924 272.388L186.924 270.655ZM185.924 139.846C187.586 138.887 189.291 139.239 190.509 140.27C191.688 141.268 192.424 142.891 192.424 144.608L190.424 144.608C190.424 143.433 189.912 142.385 189.217 141.797C188.561 141.242 187.767 141.092 186.924 141.578L185.924 139.846Z" fill="#9767CB" mask="url(#path-16-inside-4_128_1811)"/>
<path d="M63.6753 269.68C66.6146 271.377 70.236 271.377 73.1753 269.68L122.317 241.308C125.257 239.611 127.067 236.475 127.067 233.081L127.067 176.336C127.067 172.942 125.257 169.806 122.317 168.109L73.1753 139.737C70.2359 138.04 66.6146 138.04 63.6753 139.737L14.5331 168.109C11.5938 169.806 9.78309 172.942 9.78309 176.336L9.7831 233.081C9.78311 236.475 11.5938 239.611 14.5331 241.308L63.6753 269.68Z" stroke="#AD3B90"/>
<path fill-rule="evenodd" clip-rule="evenodd" d="M195.602 144.608C195.602 141.716 198.097 139.266 200.601 140.712L249.743 169.084C252.837 170.871 254.743 174.172 254.743 177.745L254.743 234.489C254.743 238.062 252.837 241.363 249.743 243.149L200.601 271.521C198.097 272.967 195.602 270.517 195.602 267.626L195.602 144.608Z" fill="#9767CB"/>
<path d="M323.6 270.113C320.506 271.9 316.694 271.9 313.6 270.113L264.458 241.741C261.364 239.955 259.458 236.653 259.458 233.081L259.458 176.336C259.458 172.764 261.364 169.462 264.458 167.676L313.6 139.304C316.694 137.517 320.506 137.517 323.6 139.304L372.742 167.676C375.836 169.462 377.742 172.764 377.742 176.336L377.742 233.081C377.742 236.653 375.836 239.955 372.742 241.741L323.6 270.113Z" fill="#AD3B90"/>
</svg>
