<svg width="474" height="460" viewBox="0 0 474 460" fill="none" xmlns="http://www.w3.org/2000/svg">
<path d="M197.429 381.971C194.335 383.757 190.523 383.757 187.429 381.971L30.7807 291.53C27.6867 289.744 25.7807 286.442 25.7807 282.87L25.7808 101.988C25.7808 98.4153 27.6868 95.114 30.7808 93.3277L187.429 2.88682C190.523 1.1005 194.335 1.10049 197.429 2.88682L354.077 93.3278C357.171 95.1141 359.077 98.4154 359.077 101.988L359.077 282.87C359.077 286.443 357.171 289.744 354.077 291.53L197.429 381.971Z" fill="#733CAE"/>
<path d="M294.083 455.495L152.421 373.707C149.637 372.099 147.921 369.128 147.921 365.913L147.921 202.336C147.921 199.12 149.637 196.149 152.421 194.541L294.083 112.753C296.868 111.145 300.299 111.145 303.083 112.753L444.745 194.541C447.53 196.149 449.245 199.12 449.245 202.336L449.245 365.913C449.245 369.128 447.53 372.099 444.745 373.707L303.083 455.495C300.299 457.103 296.868 457.103 294.083 455.495Z" stroke="#321A4C" stroke-width="2"/>
</svg>
