<svg width="332" height="493" viewBox="0 0 332 493" fill="none" xmlns="http://www.w3.org/2000/svg">
<path d="M165.69 18.5801C166.711 19.3643 167.811 20.0639 168.736 20.9497C170.728 22.851 172.779 24.2812 175.791 23.6945C178.542 23.1585 181.343 22.868 184.133 22.5577C184.892 22.473 186.032 22.1007 185.981 23.686C188.965 23.2883 190.207 25.2657 191.126 27.5451C191.501 28.4704 192.029 28.8512 192.988 29.0543C194.808 29.4408 196.613 29.9598 197.654 31.3816C198.881 31.0685 199.97 30.7892 201.183 30.4789C201.203 30.4084 201.209 30.0952 201.361 29.9062C201.843 29.3054 202.283 28.4788 202.926 28.239C203.88 27.8864 204.258 28.8935 204.777 29.5451C205.107 29.9626 205.688 30.2306 206.207 30.4366C207.313 30.8738 208.162 31.5001 208.28 32.778C208.534 35.4607 210.108 37.4748 212.862 37.9995C215.245 38.4509 217.175 39.6583 219.147 40.8938C220.255 41.5906 220.636 42.7444 220.65 43.8672C220.696 47.317 221.841 48.1493 224.323 50.4993C225.576 49.3284 226.47 50.0139 227.418 51.0717C228.019 51.7403 228.978 52.0904 229.573 52.7617C231.001 54.3724 232.357 56.0538 233.641 57.783C234.29 58.6576 235.128 59.5687 234.744 60.8239C234.611 61.2555 234.279 61.6252 234.047 62.0285C233.824 62.4178 233.525 62.7901 233.409 63.2131C233.17 64.0932 233.139 65.0439 232.815 65.8876C232.397 66.9791 231.677 67.0215 230.755 65.9044V74.0683C230.885 74.1106 231.203 74.2205 231.488 74.3167C231.895 73.865 232.321 73.3942 232.744 72.9229C232.908 72.9598 233.071 72.9963 233.235 73.0332C233.297 74.4634 233.356 75.8936 233.421 77.3239C233.503 79.0503 233.291 80.8638 233.765 82.4777C234.185 83.9107 235.432 85.0811 236.183 86.4412C236.608 87.2169 236.843 88.1225 237.032 88.9994C237.204 89.8034 237.221 90.6443 237.266 91.4706C237.314 92.3539 237.455 93.265 237.305 94.1196C237.15 95.0056 236.462 95.0393 235.771 94.5936C235.573 95.3215 235.5 96.1168 235.153 96.7658C234.289 98.3738 234.473 99.9959 235.116 101.516C237.237 106.543 236.592 111.44 234.659 116.318C234.524 116.656 234.417 117.012 234.239 117.33C232.662 120.163 234.044 122.82 234.668 125.542C235.17 127.728 235.771 129.94 235.864 132.16C235.974 134.829 234.84 137.187 233.266 139.399C232.518 140.451 232.315 141.923 231.999 143.241C231.525 145.199 233.821 147.34 233.11 149.196C232.337 151.216 229.494 152.426 228.315 154.556C231.305 157.283 233.751 160.003 237.06 163.018C238.233 161.445 241.128 159.605 242.702 160.762C244.462 162.057 248.231 163.693 249.754 165.275C250.877 166.443 250.995 165.981 252.011 167.25C252.084 167.089 253.912 168.821 253.986 168.661C254.598 168.757 255.512 170.311 255.96 170.635C257.388 171.662 256.175 172.994 257.596 174.167C257.407 173.16 256.809 172.122 256.443 171.219C255.898 169.877 257.501 170.043 257.644 169.242C258.096 169.453 258.699 169.547 258.973 169.896C259.893 171.07 260.756 172.299 261.521 173.577C261.969 174.328 261.419 174.872 260.431 175.03C260.059 175.09 259.755 175.577 259.388 175.899C259.475 177.112 262.688 177.939 261.038 179.101C263.3 182.402 263.25 186.204 265.413 189.57C268.815 194.867 272.565 200.306 276.034 205.559C277.71 208.097 279.258 210.349 281.231 212.806C281.659 212.143 281.871 211.7 282.206 211.381C282.283 211.311 282.773 211.675 283.194 211.903C282.759 210.693 283.36 209.37 283.888 208.718C286.788 211.703 290.19 215.128 288.683 217.463C288.424 216.981 286.678 217.514 286.472 217.128C286.336 217.159 286.201 217.192 286.065 217.223C286.094 217.607 286.057 218.01 286.158 218.374C286.962 221.308 289.067 223.455 290.74 225.864C291.854 227.466 292.988 229.057 294.111 230.654C294.311 230.555 294.511 230.457 294.709 230.358C294.492 229.684 294.427 228.897 294.026 228.361C292.717 226.597 291.733 223.963 291.501 221.977C291.473 221.725 292.695 220.747 292.912 220.566C293.014 220.482 293.598 221.819 293.753 221.974C294.884 223.116 295.987 224.29 297.098 225.455C298.1 226.504 298.906 228.205 297.71 229.029C297.265 229.336 297.045 229.903 296.864 230.439C296.706 230.902 295.744 230.75 295.733 231.266C295.702 232.849 297.981 233.314 296.463 233.026C296.48 233.164 302.565 236.502 297.426 235.235C299.065 237.388 296.167 237.709 295.589 240.282C294.726 244.129 294.037 248 292.734 251.746C292.351 252.849 293.087 254.135 292.909 255.323C292.294 259.433 288.72 262.553 284.621 264.142C283.366 264.63 282.37 265.758 281.199 266.505C278.432 268.274 275.639 270.001 272.844 271.724C269.106 274.029 265.436 276.463 261.585 278.565C258.592 280.198 255.269 280.906 251.83 281.267C247.59 281.713 243.384 282.509 239.173 283.205C237.401 283.499 237.794 285.107 237.661 286.212C237.258 289.595 236.371 292.786 234.499 295.657C233.164 297.705 231.088 298.738 228.885 299.499C228.394 299.669 227.686 299.415 227.142 299.195C224.089 297.95 221.372 296.219 219.121 293.761C217.375 291.854 215.045 290.834 212.667 289.97C205.305 287.296 197.95 284.591 190.545 282.038C187.665 281.045 184.68 280.269 181.684 279.733C180.5 279.521 179.163 280.311 177.873 280.52C176.057 280.813 174.226 281.152 172.395 281.183C167.85 281.265 163.368 281.558 158.95 282.827C155.396 283.849 152.236 282.32 149.176 280.675C146.848 279.423 144.535 278.139 142.157 276.991C138.696 275.318 137.063 276.469 135.334 279.036C134.823 279.795 134.453 280.655 134.087 281.499C133.965 281.775 133.914 282.255 134.073 282.455C135.353 284.091 134.676 285.457 133.548 286.703C134.129 286.918 134.665 287.118 135.418 287.397C136.058 286.667 136.758 285.739 137.593 284.954C138.34 284.252 138.921 283.129 140.532 283.411C139.379 285.146 138.307 286.717 137.288 288.323C137.057 288.686 137.015 289.172 136.888 289.601C137.314 289.643 137.745 289.756 138.163 289.71C139.179 289.598 140.544 291.248 140.135 292.272C139.111 294.845 138.098 297.432 136.893 299.923C134.425 305.025 131.937 310.129 129.229 315.105C128.363 316.696 127.299 318.707 124.699 317.991C124.385 317.903 123.948 318.273 123.243 318.566C123.099 317.81 122.972 317.13 122.885 316.673C122.354 316.905 121.649 317.215 120.944 317.525C120.721 316.868 120.498 316.208 120.312 315.652C119.781 317.079 119.197 318.715 118.552 320.329C118.408 320.69 118.097 321.06 117.764 321.257C117.352 321.5 116.836 321.568 116.365 321.711C116.298 321.22 116.23 320.727 116.151 320.149C115.787 320.304 115.386 320.476 114.786 320.733C114.631 320.465 114.269 320.129 114.292 319.822C114.481 317.322 115.008 314.893 116.137 312.636C117.795 309.319 119.513 306.03 121.133 302.693C122.143 300.614 122.947 298.436 123.976 296.368C125.229 293.852 126.602 291.395 127.977 288.943C128.188 288.562 128.634 288.255 129.04 288.057C129.362 287.9 129.787 287.962 130.168 287.928C130.162 288.244 130.154 288.56 130.151 288.875C130.148 289.203 130.151 289.53 130.151 290.275C131.026 289.203 131.689 288.393 132.462 287.445C130.538 287.575 129.424 286.365 128.648 285.144C126.622 281.956 123.474 280.353 120.331 278.675C119.339 278.145 118.165 277.721 117.474 276.912C116.286 275.515 116.842 273.707 117.071 272.091C117.209 271.115 117.894 270.229 118.16 269.253C118.738 267.129 119.248 264.982 119.7 262.827C120.114 260.849 120.563 258.858 120.707 256.852C120.774 255.884 120.309 254.799 119.846 253.89C118.893 252.017 118.292 250.104 118.267 247.98C118.258 247.238 117.919 246.457 117.57 245.78C117.403 245.461 116.802 245.103 116.481 245.165C112.049 246.048 107.553 246.942 103.595 249.14C100.04 251.111 96.8189 253.682 93.4589 256.003C91.7242 257.202 89.9923 258.409 88.2914 259.659C86.7622 260.784 85.2782 261.972 83.7778 263.132C83.7409 263.16 83.7154 263.216 83.6762 263.227C80.7875 263.916 80.8663 266.474 80.1836 268.613C79.7296 270.037 79.0583 271.414 78.319 272.723C77.7183 273.786 76.3615 273.947 75.8396 272.861C73.6277 273.834 71.5289 274.074 69.498 272.362C68.5727 271.58 67.6275 271.882 66.8604 272.773C66.344 273.377 65.8841 274.06 65.2693 274.54C64.5724 275.081 63.6021 275.51 62.9166 274.7C62.598 274.322 62.6062 273.276 62.9084 272.833C63.9603 271.287 63.6499 269.758 63.1308 268.218C62.66 266.816 62.9617 265.569 63.6445 264.356C64.3947 263.03 65.1877 261.73 65.9265 260.398C66.9452 258.564 67.7856 256.612 68.9647 254.894C70.4118 252.787 72.1551 250.886 73.7266 248.86C74.8829 247.368 75.8337 245.695 77.1203 244.333C78.6321 242.736 80.2797 241.233 82.5026 240.536C82.9597 240.392 83.3403 239.565 83.5012 238.984C84.4519 235.495 85.332 231.983 86.2176 228.476C86.3757 227.853 86.4687 227.212 86.5704 226.578C87.3629 221.599 91.1094 219.229 95.0897 217.229C99.8826 214.817 104.001 211.607 107.651 207.714C109.259 205.999 110.535 204.145 111.107 201.832C111.223 201.361 111.499 200.763 111.883 200.554C114.297 199.237 115.466 196.709 117.387 194.997C119.446 193.161 119.203 191.186 118.763 189.098C118.021 185.569 117.835 182.077 118.566 178.537C118.78 177.498 118.867 176.435 119.02 175.386C119.468 172.249 121.742 170.142 123.367 167.665C126.041 163.591 128.687 159.498 131.342 155.411C131.393 155.331 131.426 155.236 131.488 155.174C133.779 152.888 133.821 149.961 133.819 147.021C133.819 144.011 133.737 140.998 133.847 137.991C133.92 135.951 133.198 134.296 131.954 132.787C130.535 131.066 130.459 128.911 131.336 126.955C131.869 125.765 131.996 124.343 132.041 123.017C132.053 122.662 131.108 121.971 130.586 121.957C128.594 121.895 126.591 122.16 124.6 122.087C122.65 122.016 120.842 121.35 119.629 119.7C118.526 118.2 118.594 116.464 119.169 114.814C119.527 113.784 120.216 112.868 120.758 111.906C121.66 110.304 121.939 108.106 119.908 106.645C117.251 104.732 114.585 102.828 112.021 100.794C111.245 100.179 110.712 99.1974 110.23 98.2977C109.7 97.3045 109.192 96.2467 108.98 95.1551C108.799 94.2185 108.904 93.1634 109.141 92.2268C109.716 89.9561 110.489 87.7328 111.087 85.4676C111.412 84.2407 111.683 82.9627 111.699 81.7048C111.708 81.1236 111.141 80.4409 110.675 79.9642C109.454 78.7144 108.043 77.6397 106.904 76.328C106.176 75.4903 105.637 74.4042 105.293 73.3377C104.565 71.0725 103.614 68.7649 103.527 66.4459C103.457 64.5166 102.788 62.9396 102.263 61.2159C101.815 59.7433 101.674 58.1809 101.361 56.6632C101.223 55.9945 101.042 55.3259 100.796 54.6883C100.221 53.2015 100.988 51.9605 101.536 50.7221C102.311 48.9729 101.992 47.2778 101.045 45.8814C99.9136 44.217 100.001 42.8206 100.763 41.0716C101.646 39.0405 102.969 37.3902 104.41 35.7936C104.661 35.5143 105.096 35.376 105.471 35.2435C108.715 34.0925 111.979 34.1969 115.271 35.0629C117.352 35.613 119.274 34.936 121.135 34.0869C121.403 33.9656 121.564 33.5396 121.702 33.2237C122.679 31.0092 123.581 28.7581 124.617 26.5719C125.466 24.7806 126.893 24.2671 128.885 24.6705C129.381 24.7721 130.033 24.5493 130.496 24.2756C132.047 23.3588 133.48 22.2248 135.077 21.4067C136.992 20.4278 137.562 20.7043 138.606 22.5577C138.806 22.9131 139.001 23.2713 139.232 23.6888C139.853 23.2798 140.482 22.9667 140.984 22.5153C144.03 19.7818 147.26 19.9708 150.688 21.7311C152.186 22.5012 153.788 22.3827 155.354 21.7452C157.379 20.9215 159.394 20.0724 161.455 19.3502C162.539 18.9694 163.709 18.8368 164.84 18.5886C165.123 18.5886 165.405 18.5886 165.687 18.5886L165.69 18.5801ZM293.129 232.154C293.064 232.197 293.002 232.236 292.938 232.279C293.093 232.521 293.25 232.761 293.406 233.004L293.629 232.857C293.462 232.623 293.296 232.391 293.129 232.158V232.154Z" fill="#FFFCF9"/>
<path d="M17.8711 453.29C18.5794 451.642 18.9317 449.757 20.6244 448.737C21.2675 448.35 22.0378 447.978 22.7597 447.958C24.334 447.918 25.9137 448.186 27.4907 448.186C29.1155 448.186 30.7572 447.842 32.3624 447.98C33.7731 448.102 35.1381 448.708 36.5373 449.047C36.938 449.143 37.4147 449.157 37.7985 449.036C40.2697 448.254 42.6789 447.182 45.2007 446.68C47.4773 446.229 49.418 444.556 51.9739 445.027C52.7014 445.162 53.6749 444.443 54.4137 443.938C56.4761 442.536 59.4578 442.976 61.0685 444.925C61.2631 445.16 62.0926 445.247 62.2731 445.058C65.1645 442.068 67.9994 439.021 70.8457 435.983C70.9702 435.85 71.0659 435.687 71.2605 435.416C70.1603 435.151 70.3581 434.556 70.9419 434.034C72.5863 432.57 74.5329 431.608 76.6938 431.342C77.5625 431.235 78.7448 431.551 79.3879 432.121C81.6982 434.172 84.4766 435.329 87.1907 436.635C87.7746 436.914 88.3356 437.244 88.9368 437.478C90.1751 437.966 90.2344 438.891 89.7663 439.882C88.4404 442.68 87.1424 445.501 85.6306 448.198C85.0381 449.256 83.8449 449.961 83.0295 450.914C81.7319 452.435 81.0382 454.209 80.7333 456.221C80.5164 457.647 79.8869 459.019 79.3879 460.396C78.3414 463.281 78.6486 466.252 78.8318 469.197C79.052 472.738 77.32 474.042 74.2987 474.78C71.5116 475.464 68.7724 475.217 65.9995 475.117C61.7626 474.962 57.5253 474.816 53.2857 474.716C50.665 474.657 48.2498 473.8 45.8465 472.902C41.2541 471.188 36.6814 469.425 32.1031 467.674C28.729 466.38 26.0691 464.028 23.375 461.736C21.5214 460.163 19.7074 458.545 17.8738 456.95C17.8738 455.727 17.8738 454.503 17.8738 453.281L17.8711 453.29Z" fill="#FFFCF9"/>
<path d="M293.761 476.138C292.103 475.573 290.427 475.049 288.788 474.429C288.074 474.156 287.346 473.786 286.779 473.285C285.673 472.31 285.101 471.148 285.747 469.584C286.951 466.672 287.945 463.673 289.256 460.811C289.897 459.416 291.073 458.267 291.956 456.973C292.156 456.677 292.336 456.171 292.218 455.888C290.647 452.17 289.031 448.469 287.397 444.776C287.039 443.963 286.591 443.213 287.31 442.367C287.4 442.262 287.358 441.978 287.29 441.811C286.238 439.272 285.304 436.671 284.066 434.226C283.14 432.395 281.823 430.759 280.672 429.044C280.184 428.316 279.67 427.605 279.123 426.818C277.563 426.671 275.713 426.818 275.084 424.645C275.01 424.395 274.894 424.115 274.937 423.876C275.744 419.291 277.578 415.286 281.431 412.425C283.177 411.13 286.418 411.393 287.978 412.958C290.303 415.286 292.635 417.605 294.954 419.934C296.012 420.998 297.07 421.813 298.757 421.184C299.55 420.888 300.585 421.241 301.369 420.939C303.547 420.098 305.632 419.021 307.79 418.129C309.028 417.619 310.318 416.795 311.654 417.96C315.181 417.799 314.332 420.688 314.566 422.49C315.068 426.344 315.206 430.248 315.505 434.13C315.513 434.223 315.672 434.305 315.759 434.395V436.088C315.666 436.279 315.519 436.463 315.488 436.665C314.916 440.316 314.493 443.997 313.751 447.614C313.167 450.46 312.137 453.211 311.421 456.034C311.051 457.483 311.192 459.101 310.662 460.469C308.808 465.25 306.111 469.539 302.467 473.176C301.934 473.704 300.749 473.686 300.382 474.256C299.702 475.313 298.751 475.737 297.708 476.143C296.39 476.143 295.076 476.143 293.758 476.143L293.761 476.138Z" fill="#FFFCF9"/>
<path d="M255.25 377.705C253.777 378.114 252.502 378.76 251.252 378.709C250.429 378.675 249.599 377.699 248.855 377.05C244.694 373.431 241.19 369.239 238.093 364.683C237.184 363.349 236.05 362.169 235.082 360.872C234.222 359.724 234.733 358.181 236.047 357.653C236.366 357.527 236.702 357.332 236.913 357.075C237.339 356.553 237.689 355.492 238.065 355.495C238.995 355.504 240.11 355.752 240.818 356.319C243.641 358.584 246.409 360.931 249.061 363.394C251.811 365.95 254.404 368.675 257.069 371.321C257.769 372.015 258.181 372.737 257.845 373.812C257.749 374.113 258.257 374.624 258.522 375.016C259.65 376.684 259.639 377.727 258.076 378.618C257.546 378.921 256.482 378.342 255.69 378.086C255.41 377.995 255.207 377.662 255.25 377.705Z" fill="#FFFCF9"/>
<path d="M173.44 323.195C173.646 324.183 173.837 325.102 174.041 326.076C175.818 324.88 177.127 324.826 178.416 325.954C175 329.641 171.592 333.32 168.181 336.996C168.001 336.832 167.82 336.665 167.643 336.502C168.102 337.283 168.565 338.065 169.022 338.843C167.882 339.963 166.551 339.518 163.589 336.499C166.1 334.025 168.593 331.523 171.141 329.08C171.973 328.282 173.028 327.839 172.506 326.22C172.229 325.356 171.911 323.87 173.434 323.195H173.44Z" fill="#FFFCF9"/>
<path d="M125.905 315.353C127.925 312.044 130.176 308.851 131.902 305.392C134.004 301.189 135.66 296.763 137.497 292.464C135.604 290.165 132.839 291.211 130.546 290.54C129.51 290.235 128.399 290.187 127.239 290.01C127.843 288.828 128.354 287.829 128.878 286.805C125.666 285.462 122.588 284.204 119.538 282.884C118.311 282.353 117.138 281.693 115.956 281.062C115.682 280.915 115.295 280.641 115.278 280.401C115.16 278.819 113.99 278.949 112.875 278.9C113.293 277.818 113.691 276.793 114.159 275.581C113.239 274.018 114.351 272.294 114.754 270.615C115.758 266.452 117.019 262.353 118.167 258.226C118.252 257.918 118.354 257.557 118.274 257.269C117.403 254.107 116.497 250.953 115.592 247.769C113.829 247.904 112.289 248.934 110.607 249.752C108.215 250.914 105.611 251.695 103.03 252.392C100.886 252.973 99.5205 254.629 97.7407 255.693C97.0243 256.119 96.378 256.663 95.5772 257.242C95.4897 260.119 91.7519 263.961 88.0564 263.445C87.2297 265.93 86.3865 268.421 85.5739 270.923C85.2156 272.026 84.279 272.291 83.5174 271.369C82.9591 270.692 82.5894 269.857 82.0872 269.007C81.8616 269.905 81.5088 270.779 81.4441 271.673C81.2777 274.012 80.2563 275.707 78.1238 276.746C75.9939 277.781 73.819 277.479 72.1518 275.786C71.3336 277.177 70.7949 278.971 68.8091 278.968C67.0348 278.968 65.7367 278.153 65.4861 275.88C64.4929 276.934 63.7254 277.849 62.8512 278.647C62.3403 279.112 61.6607 279.397 60.9753 279.812C60.6931 276.032 60.4055 272.613 60.2077 269.185C60.1685 268.486 59.7652 267.566 60.8198 267.115C60.9552 267.055 61.0145 266.717 61.0318 266.503C61.2515 263.639 62.5181 261.154 63.9205 258.745C65.342 256.302 66.7527 253.834 68.4058 251.546C70.1573 249.12 72.1686 246.88 74.0984 244.584C75.0687 243.43 76.1038 242.333 77.1616 241.154C76.0956 240.35 76.4169 239.492 77.4807 238.662C78.6119 237.78 79.6725 236.795 80.8516 235.988C81.4272 235.593 82.2057 235.495 83.207 235.156C82.9222 234.603 82.3328 233.918 82.2312 233.167C82.0562 231.892 82.0138 230.544 82.2312 229.28C82.671 226.696 83.2918 224.143 83.8898 221.59C84.2115 220.219 85.1167 219.384 86.3892 218.718C91.2045 216.202 96.017 213.672 100.708 210.938C103.002 209.601 105.064 207.849 107.14 206.171C107.653 205.756 107.947 204.935 108.105 204.247C108.328 203.265 108.127 202.145 108.497 201.246C108.796 200.518 109.628 199.976 110.297 199.443C112.13 197.981 114.133 196.707 115.789 195.073C116.441 194.43 116.686 192.983 116.54 191.984C116.04 188.579 115.287 185.211 114.624 181.829C114.582 181.609 114.551 181.307 114.401 181.197C113.056 180.207 113.916 179.137 114.37 178.209C117.775 171.242 121.657 164.556 126.599 158.55C128.018 156.827 127.705 155.03 126.357 153.461C125.285 152.217 124.678 150.773 124.625 149.157C124.602 148.533 124.921 147.873 125.175 147.267C125.787 145.788 126.591 144.375 127.056 142.857C127.533 141.306 127.773 139.706 126.769 138.135C126.046 137.004 126.196 135.706 126.763 134.479C126.853 134.287 126.827 134.042 126.884 133.616C123.671 136.883 124.647 140.321 126.187 143.808C125.987 143.867 125.784 143.923 125.584 143.983C125.138 143.405 124.545 142.886 124.275 142.234C123.358 140.05 122.968 137.873 123.256 135.379C123.637 132.047 125.406 129.836 127.651 127.745C127.713 127.686 127.818 127.655 127.849 127.588C128.052 127.139 128.241 126.685 128.551 125.957C126.935 126.092 125.488 126.295 124.04 126.301C123.248 126.304 122.455 125.96 121.657 125.796C118.751 125.192 117.2 123.373 116.085 120.628C115.064 118.109 115.07 115.697 115.53 113.215C115.702 112.284 116.455 111.415 117.081 110.625C117.778 109.748 118.441 109.026 117.205 108.055C116.92 107.832 116.906 107.262 116.765 106.839C114.116 108.095 110.954 106.915 109.8 104.382C109.611 103.965 109.267 103.587 108.912 103.285C107.575 102.145 106.666 100.788 106.15 99.0734C105.115 95.6287 105.416 92.3877 106.954 89.1348C107.806 87.3354 108.398 85.3801 108.838 83.434C109.084 82.3479 108.954 81.1715 107.577 80.4692C106.232 79.7837 104.94 78.8781 103.862 77.8229C103.115 77.0923 102.621 75.9948 102.291 74.9739C101.986 74.0318 101.984 72.9708 101.975 71.958C101.961 70.4914 101.744 69.1769 100.765 67.9554C100.263 67.3292 100.057 66.3361 100.02 65.4952C99.9749 64.4405 99.7744 63.5403 99.1144 62.694C97.1678 60.1977 96.6432 57.4416 97.7011 54.4116C98.1186 53.2157 98.7758 51.9888 98.7649 50.7814C98.7535 49.348 98.1414 47.921 97.7886 46.4935C94.4487 47.2779 92.7309 44.5724 93.2299 41.6471C93.8758 37.8472 95.811 34.7949 98.8774 32.5494C100.564 31.3138 102.497 30.4478 104.72 31.2997C104.957 31.39 105.29 31.3477 105.544 31.2631C107.123 30.7356 108.655 29.9457 110.274 29.6946C112.325 29.3758 114.384 29.6382 116.184 30.9641C116.757 31.3872 117.504 31.6213 118.207 31.8047C119.253 32.0783 119.431 31.1869 119.823 30.5099C120.864 28.7101 121.908 26.9019 123.101 25.2008C124.167 23.6803 125.775 22.8397 127.527 22.2247C128.681 21.8185 129.747 21.4997 131.02 21.8242C131.434 21.9314 132.097 21.2233 132.597 20.8284C134.007 19.7169 135.367 19.1838 137.313 19.7987C138.368 20.1316 139.217 20.3432 139.767 21.3559C141.832 20.3319 143.765 19.0286 145.897 18.4334C147.457 17.999 149.472 17.5448 150.93 18.7437C152.397 19.9482 153.57 18.9694 154.696 18.5377C156.264 17.9369 157.666 16.9044 159.144 16.0638C160.067 15.5391 160.964 14.9551 161.929 14.5235C163.057 14.0186 164.248 13.6462 165.41 13.2174C165.692 13.2174 165.974 13.2174 166.256 13.2174C168.518 14.0834 170.327 15.3303 170.899 17.9369C171.15 19.0794 172.73 19.4771 173.954 19.2684C175.187 19.0596 176.671 18.487 177.3 20.109C178.993 19.6943 180.586 19.3276 182.169 18.9129C184.818 18.219 187.303 18.944 189.597 20.078C192.138 21.3362 193.216 23.8524 193.975 26.081C195.414 26.2361 196.714 26.3885 198.017 26.5097C198.381 26.5436 198.824 26.6085 199.112 26.4477C201.893 24.8849 204.686 24.8962 207.228 26.7608C208.996 28.0585 210.494 29.7313 212.083 31.2688C212.582 31.7539 212.943 32.3802 213.439 32.8682C213.82 33.2434 214.272 33.6186 214.765 33.7906C215.544 34.0615 216.381 34.1545 217.191 34.3407C218.554 34.6567 219.225 35.7794 220.164 36.6708C221.77 38.197 222.45 40.0503 222.938 42.0363C223.242 43.2747 223.256 44.5837 223.4 45.8531C225.394 46.1608 226.407 46.8996 227.488 48.719C227.629 48.956 228.007 49.2099 228.264 49.199C230.156 49.1055 231.609 50.1351 232.853 51.2663C234.1 52.4003 235.042 53.8816 236.072 55.2439C237.491 57.1199 237.564 59.3627 237.358 61.5235C237.243 62.7222 236.402 63.848 235.889 65.0102C236.021 65.2021 236.32 65.5207 236.487 65.8958C236.944 66.9258 237.435 67.9554 237.736 69.0356C237.928 69.7211 238.018 70.5789 237.762 71.1992C237.581 71.634 236.74 71.7917 236.196 72.0738C236.918 69.9722 236.503 68.5083 234.504 66.5334C234.856 68.0625 235.189 69.5069 235.522 70.9512C235.426 70.9708 235.33 70.9904 235.237 71.0105C234.746 69.5971 234.252 68.1865 233.762 66.7732C233.335 67.8903 233.175 68.9682 233.127 70.0483C233.099 70.6746 233.273 71.0752 234.083 71.3997C235.68 72.0373 237.606 72.5984 237.931 74.6972C238.145 76.0851 239.144 77.5832 237.392 78.8694C236.461 79.5549 235.86 80.6889 235.291 81.3944C236.176 82.2321 237.155 82.8442 237.683 83.7302C238.546 85.1801 239.24 86.7625 239.776 88.365C240.329 90.0181 240.653 91.7838 239.717 93.4428C239.025 94.667 238.23 95.8319 237.525 96.9518C238.303 97.4823 238.89 97.9194 239.513 98.3004C242.933 100.382 244.529 103.708 244.831 107.42C245 109.533 244.038 111.779 243.389 113.906C242.667 116.27 240.69 117.833 239.245 119.734C239.023 120.027 238.422 120.036 238.041 120.163C239.192 117.979 240.391 116.058 241.254 113.999C242.941 109.971 242.98 105.962 240.441 102.19C240.208 101.84 239.812 101.598 239.491 101.308C239.319 100.929 239.147 100.551 238.975 100.176C238.87 100.224 238.766 100.272 238.659 100.32C238.87 100.727 239.082 101.133 239.291 101.536C239.581 102.123 239.945 102.684 240.154 103.296C241.04 105.925 240.566 108.597 240.188 111.22C239.739 114.349 237.832 116.868 236.117 119.384C235.367 120.487 235.431 121.13 236.007 122.171C236.292 122.688 236.34 122.831 236.794 122.487C239.508 120.442 245.421 120.614 247.395 124.673C248.518 126.981 249.711 129.235 248.905 131.926C248.425 133.528 247.937 135.125 247.412 136.854C247.957 136.547 248.484 136.217 249.037 135.937C251.096 134.896 253.22 133.971 255.207 132.806C256.436 132.084 257.444 130.984 258.586 130.101C258.834 129.909 259.24 129.917 259.573 129.833C259.616 130.157 259.785 130.538 259.675 130.798C259.353 131.537 259.035 132.341 258.499 132.913C257.472 134.011 256.377 135.08 255.164 135.96C251.472 138.64 247.511 140.809 242.927 141.746C243.042 141.991 243.113 142.268 243.279 142.468C245.023 144.587 245.144 146.784 243.675 148.891C242.148 151.078 239.829 151.941 237.378 152.682C238.458 153.289 238.543 153.915 237.615 154.655C237.392 154.832 237.141 155.089 237.091 155.348C236.873 156.474 236.726 157.614 236.56 158.72C236.707 158.649 237.008 158.471 237.333 158.355C238.565 157.907 239.779 157.329 241.121 158.077C242.913 159.075 244.701 160.088 246.546 160.976C247.457 161.416 248.6 161.419 249.455 161.927C251.029 162.866 252.467 164.034 253.962 165.106C254.8 165.707 255.489 166.429 256.78 165.913C257.669 165.558 258.795 165.622 259.514 166.689C260.541 168.215 261.762 169.62 262.685 171.202C263.509 172.616 263.98 174.229 264.725 175.696C265.263 176.757 265.337 177.519 263.923 177.854C265.387 180.703 266.803 183.456 268.214 186.201C270.048 185.299 271.723 184.644 273.052 183.132C274.643 181.318 277.015 181.485 278.756 183.033C278.937 183.194 279.224 183.285 279.472 183.31C282.511 183.603 284.02 185.169 284.198 188.125C284.223 188.571 284.48 189.113 284.81 189.411C285.907 190.401 286.434 191.547 286.471 193.05C286.491 193.956 286.795 194.91 287.185 195.744C287.89 197.259 288.237 198.673 287.024 200.097C286.838 200.317 286.717 200.676 286.728 200.966C286.79 202.543 285.867 203.542 284.798 204.489C284.468 204.783 284.014 205.161 283.989 205.525C283.901 206.732 283.261 206.882 282.276 206.684C282.011 206.631 281.718 206.73 281.416 206.761C281.766 207.367 282.059 207.878 282.355 208.385C282.375 208.27 282.398 208.151 282.417 208.035C283.388 208.168 284.392 208.185 285.323 208.453C288.697 209.423 289.275 212.975 291.639 215.057C291.126 215.181 290.886 215.238 290.638 215.297C291.086 216.487 291.498 217.573 291.918 218.687C291.165 218.851 290.649 218.967 290.003 219.107C290.35 219.618 290.595 219.977 290.841 220.338C292.658 219.068 293.278 219.063 294.855 220.402C295.569 221.006 296.274 221.666 296.81 222.42C297.701 223.672 298.339 225.119 299.298 226.31C300.618 227.949 300.59 228.527 298.697 229.604C298.457 229.74 298.139 229.836 298.012 230.045C297.809 230.38 297.521 230.911 297.651 231.156C298.014 231.836 298.189 232.53 299.29 232.846C300.993 233.334 300.415 235.19 300.158 236.318C299.126 240.863 297.854 245.351 296.657 249.856C296.387 250.872 295.679 251.944 295.851 252.863C296.189 254.694 296.142 256.469 295.606 258.155C295.272 259.202 295.267 260.59 293.887 261.14C293.301 261.374 292.731 261.744 292.271 262.178C290.576 263.781 289.126 265.713 287.23 267.01C282.671 270.133 277.957 273.036 273.229 275.902C267.009 279.673 260.829 283.553 254.007 286.187C252.447 286.791 250.645 288.094 249.051 286.06C249.009 286.004 248.874 286.024 248.786 286.001C247.248 285.595 245.714 285.18 244.174 284.791C243.954 284.734 243.657 284.715 243.48 284.822C242.54 285.38 241.593 285.942 240.721 286.599C240.427 286.819 240.222 287.307 240.185 287.694C240.038 289.265 240.016 290.845 239.858 292.416C239.801 292.983 239.587 293.581 239.288 294.072C238.481 295.389 238.58 296.45 239.615 297.649C239.849 297.919 240.016 298.515 239.878 298.788C239.618 299.296 239.183 299.826 238.684 300.069C237.928 300.436 237.02 300.478 236.241 300.811C232.921 302.222 229.488 303.068 225.871 303.246C225.022 303.288 224.125 303.671 223.378 304.114C222.43 304.676 221.586 305.429 220.751 306.157C220.469 306.402 220.136 306.856 220.176 307.169C220.444 309.263 220.847 311.339 221.127 313.432C221.668 317.489 222.368 321.54 222.61 325.616C222.867 329.932 222.673 334.273 222.673 338.603C222.673 340.891 222.673 343.179 222.673 345.484C229.604 347.692 235.942 350.767 241.322 355.549C241.074 356.113 240.87 356.573 240.67 357.033C240.419 357.408 240.168 357.78 239.917 358.156C240.013 358.215 240.109 358.274 240.205 358.333C240.433 357.992 240.659 357.651 240.887 357.309C241.228 356.88 241.57 356.452 242.001 355.907C244.487 358.082 246.916 360.209 249.153 362.17C248.919 363.357 247.44 363.69 248.101 364.934C248.763 364.294 249.35 363.73 250.008 363.098C253.342 366.725 257.088 369.848 259.703 374.04C261.06 376.212 262.849 378.114 264.372 380.187C268.079 385.237 271.594 390.438 275.478 395.344C278.527 399.195 282.023 402.693 285.309 406.357C286.857 408.084 288.519 409.711 289.563 411.858C289.865 412.476 290.858 412.719 291.38 413.277C293.137 415.158 294.827 417.108 296.415 418.888C297.287 418.51 298.141 418.039 299.053 417.757C303.495 416.38 308.06 416.056 312.678 416.335C314.934 416.47 314.934 416.507 315.53 418.691C316.531 422.358 316.633 426.112 316.624 429.881C316.624 430.629 316.799 431.379 316.892 432.127V436.64C316.785 437.498 316.723 438.366 316.562 439.213C315.939 442.499 315.383 445.8 314.621 449.055C312.494 458.153 309.919 467.073 303.583 474.347C302.35 475.76 301.171 477.227 299.966 478.672H299.684C299.411 478.212 299.135 477.756 298.824 477.237C296.268 478.317 293.664 478.458 291.004 477.546C288.584 476.717 286.217 475.833 284.801 473.499C284.601 473.167 284.435 472.419 284.496 472.387C285.365 471.981 284.826 471.421 284.764 470.879C284.703 470.336 284.759 469.757 284.883 469.219C286.042 464.265 288.181 459.735 290.951 455.495C291.278 454.996 291.385 454.711 291.089 454.107C288.415 448.615 285.808 443.092 283.21 437.636C282.539 437.805 281.842 437.98 281.145 438.158C281.049 438.017 280.953 437.875 280.858 437.735C281.461 436.77 282.065 435.808 282.632 434.902C281.523 433.537 280.372 432.146 279.25 430.733C277.977 429.128 276.97 427.317 274.299 427.805C273.207 428.005 272.739 426.798 273.105 425.559C269.678 423.221 266.18 421.001 262.857 418.541C252.321 410.744 241.832 402.882 231.361 395C225.022 390.232 218.717 385.42 212.449 380.562C205.163 374.918 198.17 368.898 190.296 364.02C184.705 360.556 180.042 355.964 175.797 350.967C172.047 346.556 168.369 342.079 164.654 337.627C167.018 335.374 169.097 333.39 171.173 331.407C171.06 331.291 170.95 331.176 170.837 331.06C169.957 331.799 169.06 332.516 168.203 333.278C166.141 335.105 164.208 337.097 162.025 338.761C158.439 341.498 154.625 343.932 151.045 346.674C147.833 349.134 144.788 351.817 141.714 354.451C141.299 354.807 140.924 355.459 140.91 355.983C140.789 360.108 140.481 364.192 139.482 368.224C138.797 370.994 138.526 373.871 137.759 376.616C136.292 381.871 133.937 386.771 131.271 391.522C127.911 397.511 124.252 403.313 119.417 408.233C112.883 414.877 107.264 422.267 101.521 429.562C98.0201 434.011 94.4487 438.4 90.9028 442.812C90.8039 442.936 90.6288 442.996 90.4907 443.089C89.7405 443.608 88.7898 443.983 88.2734 444.677C86.0196 447.706 83.8898 450.827 81.7517 453.868C81.9773 454.497 82.4258 455.174 82.4258 455.852C82.4258 457.898 82.465 459.976 82.0986 461.977C81.4272 465.66 80.5102 469.297 79.6132 472.939C79.4551 473.577 78.9082 474.119 78.5385 474.707C78.0732 474.306 77.6074 473.909 77.1676 473.531C76.6398 473.891 76.0477 474.333 75.4215 474.716C72.9981 476.193 70.2193 476.366 67.5507 476.343C62.9556 476.307 58.3404 476.052 53.779 475.509C49.5531 475.003 45.2989 474.315 41.2143 473.162C34.6867 471.311 28.5118 468.563 23.1291 464.283C20.5285 462.214 17.8062 460.264 16.7907 456.845C16.6298 456.303 16.3787 455.783 16.1699 455.255C16.1699 454.409 16.1699 453.563 16.1699 452.717C16.9935 451.374 17.6507 449.881 18.6776 448.719C21.0586 446.022 24.3565 445.74 27.6144 446.116C30.8331 446.485 33.9816 447.467 37.2003 447.845C38.6245 448.011 40.1733 447.438 41.6204 447.044C45.6093 445.955 49.5814 444.798 53.5475 443.622C54.1004 443.458 54.5716 443.021 55.0848 442.725C55.9481 442.225 56.7662 441.56 57.6973 441.297C58.5546 441.052 59.7337 440.595 60.0218 442.31C60.1175 442.888 60.9639 443.377 61.5254 443.834C64.0276 445.873 65.6552 448.578 67.3392 451.258C67.6159 451.695 68.29 452.042 68.8287 452.127C72.0642 452.629 75.3198 453.016 78.5581 453.501C79.3197 453.614 79.8051 453.588 80.2085 452.798C81.6925 449.901 83.2521 447.044 84.897 443.966C79.8078 443.058 75.8499 439.974 72.2789 436.482C70.4649 438.877 68.7298 441.312 66.8201 443.597C66.3493 444.161 65.3224 444.42 64.5184 444.502C63.3111 444.626 62.9697 444.115 63.565 443.012C64.8229 440.691 66.0895 438.353 67.6045 436.197C68.9782 434.242 70.7612 432.581 72.2137 430.674C72.7247 430.002 72.7301 428.967 73.0628 428.135C74.8148 423.729 76.4538 419.274 78.3918 414.95C82.8998 404.89 87.901 395.039 91.2017 384.478C93.4528 377.267 95.5261 370.001 97.7097 362.767C100.209 354.488 102.613 346.178 105.309 337.966C106.934 333.024 108.965 328.208 110.974 323.404C111.651 321.785 112.889 320.406 113.753 318.851C114.367 317.745 114.785 316.529 115.262 315.429C118.746 316.123 122.151 316.106 125.567 315.604C125.705 315.584 125.823 315.404 125.95 315.3L125.902 315.347L125.905 315.353ZM251.139 227.074C251.201 227.159 251.263 227.243 251.325 227.328C251.322 227.19 251.319 227.052 251.316 226.916C251.249 226.682 251.184 226.445 251.116 226.211C250.919 226.411 250.721 226.614 250.524 226.815C250.73 226.902 250.936 226.99 251.139 227.077V227.074ZM232.148 79.0585C232.123 79.2618 232.097 79.4674 232.072 79.6706C232.154 79.6538 232.232 79.6342 232.314 79.6169C232.258 79.4223 232.201 79.2304 232.148 79.0417C232.331 79.002 232.512 78.9596 232.695 78.9204C234.024 77.5408 234.103 76.5167 232.893 75.8877C232.76 76.8075 232.628 77.7158 232.498 78.6215C232.382 78.7678 232.267 78.9145 232.151 79.0613L232.148 79.0585ZM162.476 50.296C162.338 50.1492 162.197 50.0057 162.059 49.8589C161.412 47.9602 162.428 46.4397 163.198 44.8629C163.492 44.6146 163.785 44.3636 164.078 44.1154C164.03 44.0561 163.983 43.9941 163.934 43.9348C163.63 44.1605 163.322 44.3862 163.018 44.6119L162.287 44.8347C160.843 44.0364 158.986 44.1887 157.945 45.3171C157.079 46.2537 156.154 47.2355 156.552 48.9136C157.054 47.946 157.384 47.1703 157.835 46.4707C158.905 44.815 160.643 44.8488 162.329 44.7924C162.225 45.035 162.146 45.2889 162.016 45.5146C161.128 47.0349 160.938 48.5695 161.886 50.1383C162.019 50.2509 162.154 50.3639 162.287 50.4765C162.372 50.5526 162.456 50.6319 162.541 50.708C162.521 50.5695 162.501 50.4314 162.482 50.2933L162.476 50.296ZM246.546 367.354C246.38 367.222 246.213 367.09 246.05 366.957C245.959 367.059 245.866 367.16 245.776 367.261C245.968 367.358 246.16 367.453 246.351 367.552C246.504 367.721 246.656 367.894 246.806 368.063C246.859 368.018 246.916 367.97 246.969 367.925C246.828 367.735 246.687 367.546 246.546 367.358V367.354ZM129.84 54.1496C130.035 54.2339 130.232 54.3214 130.427 54.4062C132.004 55.2357 133.623 55.4216 135.287 54.8943C135.296 54.7079 135.305 54.5219 135.313 54.3355C133.719 54.3355 132.125 54.3355 130.526 54.3387C130.36 54.2116 130.193 54.0844 130.026 53.9577C129.73 53.7941 129.434 53.6304 129.141 53.4641C129.093 53.5571 129.045 53.6528 128.997 53.7462C129.279 53.8816 129.561 54.0142 129.843 54.1496H129.84ZM244.34 365.614C244.521 365.738 244.701 365.865 244.885 365.989C244.992 365.871 245.096 365.752 245.203 365.634C245 365.555 244.797 365.473 244.594 365.394C244.267 365.129 243.939 364.866 243.612 364.602C243.531 364.706 243.449 364.81 243.367 364.917C243.691 365.148 244.019 365.383 244.343 365.614H244.34ZM248.93 224.253C250.529 223.421 252.132 222.589 253.731 221.76C253.627 221.576 253.525 221.393 253.421 221.206C251.841 222.16 250.264 223.113 248.684 224.067C248.592 224.194 248.498 224.324 248.408 224.451C248.583 224.386 248.755 224.318 248.93 224.253ZM232.391 147.272C231.259 148.649 230.128 150.025 228.971 151.433C229.197 151.619 229.471 151.845 230.057 152.33C230.946 150.629 231.759 149.075 232.568 147.523C232.633 147.357 232.701 147.193 232.766 147.027C232.639 147.108 232.512 147.19 232.388 147.272H232.391ZM230.865 133.689C231.773 133.261 232.531 132.572 232.427 131.565C232.337 130.696 231.801 129.875 231.539 129.224C229.634 130.109 230.207 131.604 230.83 133.117C230.87 133.21 230.746 133.37 230.698 133.5C230.253 133.921 229.719 134.304 230.123 135.342C230.444 134.626 230.653 134.158 230.861 133.689H230.865ZM223.067 65.9268C223.456 66.8493 223.846 67.7718 224.235 68.6942C224.345 68.6519 224.452 68.6099 224.563 68.5648C224.131 67.5972 223.699 66.6323 223.268 65.6647C222.982 64.0399 220.534 62.096 218.678 62.0199C217.696 61.9807 215.73 63.5827 215.567 64.5558C217.366 62.4178 218.427 62.6858 220.875 63.8986C221.73 64.322 222.345 65.2386 223.067 65.9268ZM110.52 89.1631C108.41 92.4187 109.024 95.6738 110.506 98.8305C110.652 98.7658 110.943 98.5794 110.988 98.6277C111.978 99.6741 113.242 99.2115 114.404 99.2452C114.579 99.2512 114.763 98.98 114.943 98.8364C114.794 98.6701 114.669 98.4472 114.483 98.3483C114.252 98.2243 113.969 98.1874 113.705 98.1341C110.378 97.4486 110.131 96.3511 109.789 93.8233C109.566 92.1762 110.204 90.8503 110.723 89.4338C110.98 88.9375 111.239 88.4411 111.496 87.9443C111.369 87.8883 111.244 87.8345 111.118 87.778C110.917 88.2406 110.717 88.7005 110.517 89.1631H110.52ZM177.04 176.317C177.128 175.871 177.218 175.422 177.371 174.649C176.753 175.369 176.38 175.8 176.067 176.164C175.774 175.126 175.492 174.125 175.156 172.923C174.025 173.572 173.024 173.885 172.454 174.562C172.019 175.076 171.943 176.091 172.098 176.796C172.155 177.056 173.334 177.146 174.005 177.166C174.482 177.18 174.967 176.948 175.69 176.765C175.356 177.341 175.176 177.651 174.995 177.964C174.939 178.142 174.883 178.319 174.826 178.497C174.973 178.413 175.119 178.328 175.266 178.243C176.231 178.051 177.314 177.978 176.959 176.503C177.046 176.466 177.075 176.404 177.043 176.317H177.04ZM249.054 181.219C249.339 181.386 249.621 181.555 249.906 181.722C249.957 181.637 250.01 181.552 250.061 181.465C249.782 181.321 249.503 181.177 249.223 181.033C244.704 176.946 239.559 173.792 234.261 171.064C233.784 171.363 233.138 171.755 232.853 171.575C230.484 170.074 228.14 168.531 225.877 166.872C224.639 165.964 223.502 164.886 222.461 163.752C221.364 162.559 219.702 161.591 220.275 159.487C220.334 159.27 220.018 158.92 219.829 158.669C219.284 157.952 218.681 157.278 218.164 156.542C216.81 154.618 215.521 152.649 214.153 150.736C212.083 147.842 209.913 145.015 207.882 142.093C206.345 139.881 204.977 137.554 203.501 135.297C201.981 132.967 200.485 130.64 200.359 127.723C200.345 127.424 200.062 127.066 199.806 126.862C196.59 124.343 192.982 123.641 189.046 124.671C188.423 124.834 187.87 125.404 187.258 125.452C185.069 125.63 183.391 126.882 181.87 128.18C180.513 129.336 179.134 130.71 179.086 132.77C179.069 133.475 179.089 134.183 179.018 134.879C178.823 136.761 178.55 138.637 178.383 140.522C178.189 142.699 178.025 144.88 177.938 147.063C177.884 148.375 178.031 149.695 178.034 151.01C178.042 154.065 177.87 157.129 178.062 160.172C178.192 162.24 178.891 164.268 179.19 166.333C179.472 168.266 179.67 168.457 181.435 167.941C182.626 169.47 184.062 170.328 185.927 170.644C185.907 170.215 185.828 169.877 185.884 169.56C186.57 165.684 187.253 161.806 187.983 157.938C188.609 154.609 189.275 151.286 189.978 147.972C190.065 147.557 190.477 147.213 190.739 146.835C190.872 146.916 191.004 146.996 191.137 147.077C190.186 155.357 189.233 163.637 188.294 171.82C192.076 174.268 195.177 177.287 197.405 180.692C198.226 180.692 199.264 180.875 199.354 180.661C199.721 179.795 200.353 179.877 200.982 179.958C201.938 180.083 202.872 180.379 203.829 180.483C206.968 180.83 210.111 181.124 213.332 181.445C213.558 179.248 214.991 177.919 217.112 177.208C219.056 176.556 220.935 175.558 223.522 175.902C221.383 178.605 218.006 178.754 216.015 180.895C216.447 182.133 217.408 182.59 218.624 182.76C219.62 182.898 220.607 183.11 221.581 183.358C221.883 183.437 222.125 183.747 222.393 183.953C222.168 184.193 221.978 184.573 221.708 184.644C220.686 184.918 219.626 185.324 218.605 185.259C214.311 184.988 210.026 184.565 205.738 184.196C204.463 184.085 203.191 183.959 201.949 183.843C201.794 185.589 201.704 187.169 201.51 188.735C200.971 193.031 200.528 197.344 199.758 201.601C199.428 203.426 199.546 205.564 197.608 206.865C195.357 208.377 193.204 210.033 191.185 211.497C191.36 211.531 191.811 211.612 192.257 211.711C196.68 212.693 200.819 214.439 204.872 216.419C205.256 216.605 205.744 216.575 205.969 216.611C206.672 217.142 207.247 217.691 207.919 218.064C210.935 219.734 213.662 221.979 217.16 222.704C220.887 223.475 224.582 224.411 228.334 225.023C230.365 225.353 232.585 225.574 234.535 225.094C237.003 224.487 239.285 223.116 241.649 222.075L241.214 221.647C241.465 221.263 241.646 220.795 241.985 220.513C242.831 219.804 243.985 219.308 243.026 217.855C242.876 217.629 243.147 217.057 243.319 216.693C245.054 213.077 246.964 209.533 248.518 205.844C250.54 201.042 252.346 196.145 254.129 191.248C255.082 188.63 254.648 187.877 252.061 186.65C251.725 186.492 251.401 186.309 251.06 186.159C248.256 184.934 247.796 184.094 248.182 180.887C248.225 180.87 248.281 180.827 248.309 180.842C248.561 180.963 248.806 181.093 249.054 181.219ZM164.679 132.651C163.319 133.89 161.979 135.151 160.597 136.363C158.089 138.564 155.534 140.699 152.414 142.02C151.838 142.262 151.305 142.609 150.724 142.829C148.766 143.56 146.837 144.426 144.817 144.914C143.034 145.345 141.141 145.286 139.313 145.562C138.763 145.644 138.075 145.994 137.79 146.44C136.309 148.745 134.969 151.142 133.516 153.467C131.504 156.691 129.575 159.978 127.355 163.055C125.008 166.311 122.432 169.377 120.588 172.996C119.4 175.326 118.921 177.735 118.686 180.28C118.269 184.83 119.894 189.098 120.399 193.519C120.698 196.142 121.141 198.754 121.38 201.384C121.668 204.551 121.225 207.731 121.499 210.927C121.708 213.364 121.236 215.858 121.121 218.329C120.985 221.255 120.954 224.188 120.788 227.111C120.565 231.046 120.1 234.973 120.038 238.908C119.987 242.243 120.252 245.597 120.582 248.922C120.901 252.113 121.499 255.272 121.939 258.449C122.054 259.287 122.147 260.215 120.982 260.167C120.825 261.109 120.588 261.922 120.574 262.736C120.523 265.781 119.327 268.517 118.441 271.349C118.193 272.147 117.956 273.445 118.368 273.854C119.231 274.711 119.863 275.442 119.572 276.319C123.002 276.074 126.447 275.685 129.9 275.623C132.568 275.575 135.242 275.961 137.917 276.113C139.042 276.179 140.177 276.068 141.299 276.156C145.635 276.5 149.959 277.042 154.301 277.228C159.319 277.445 164.349 277.36 169.373 277.42C170.217 277.431 171.08 277.4 171.895 277.572C176.598 278.568 181.3 279.566 185.98 280.664C193.41 282.407 200.607 284.845 207.673 287.753C215.414 290.941 222.83 295.132 231.496 295.674C234.21 295.843 235.333 295.237 235.358 292.492C235.384 289.807 236.439 287.403 237.364 284.966C237.466 284.695 237.866 284.537 238.128 284.328C238.303 284.576 238.476 284.822 238.647 285.067C239.265 284.559 239.86 284.069 240.588 283.468C236.334 281.826 232.489 279.617 228.046 278.954C226.543 278.731 226.424 278.232 227.068 276.954C226.007 276.105 224.87 275.369 223.95 274.421C221.293 271.682 218.661 268.914 216.144 266.049C214.119 263.744 212.209 261.326 210.376 258.866C208.649 256.55 207.188 254.034 205.425 251.749C203.149 248.795 202.11 245.303 201.222 241.845C200.508 239.072 200.638 236.079 200.376 233.187C200.347 232.885 200.294 232.516 200.105 232.31C197.76 229.737 195.49 227.088 192.993 224.668C191.351 223.074 191.033 222.431 191.989 220.273C192.499 219.116 192.94 217.928 193.371 216.854C191.03 215.99 188.77 215.161 186.638 214.374C186.888 213.164 187.103 212.129 187.284 211.26C184.017 211.26 181.086 211.26 178.155 211.26C177.339 211.26 176.679 211.133 176.657 210.075C176.651 209.81 176.302 209.35 176.067 209.319C173.19 208.946 172.073 207.085 171.568 204.458C171.224 202.659 170.558 200.941 168.53 200.224C168.022 200.044 167.553 199.57 167.226 199.119C166.454 198.055 165.838 196.873 165.04 195.829C163.822 194.241 162.473 192.751 161.235 191.178C160.563 190.323 160.357 189.304 160.924 188.32C162.662 185.293 164.507 182.359 168.053 181.101C168.86 180.816 169.638 180.452 170.501 180.097C170.132 179.628 169.791 179.194 169.444 178.765C168.572 177.679 167.512 176.694 166.868 175.487C165.951 173.764 165.111 171.933 164.642 170.048C163.649 166.059 162.834 162.023 162.104 157.975C161.63 155.352 161.55 152.655 161.082 150.028C160.417 146.293 161.263 142.708 162.123 139.182C162.657 136.998 163.971 135.004 164.936 132.925C165.088 132.75 165.24 132.575 165.393 132.4C165.348 132.349 165.3 132.298 165.255 132.248C165.063 132.383 164.871 132.516 164.682 132.651H164.679ZM196.44 217.66C196.925 218.005 197.053 218.07 197.143 218.165C201.71 223.074 204.624 228.93 206.807 235.184C206.948 235.588 206.491 236.2 206.311 236.713C206.24 237.844 206.379 239.043 206.596 240.225C206.841 241.563 206.81 243.114 207.504 244.181C211.033 249.611 214.661 254.987 218.447 260.246C222.108 265.329 226.001 270.246 229.81 275.222C229.953 275.408 230.266 275.521 230.517 275.563C233.818 276.142 237.155 276.562 240.419 277.307C243.863 278.094 247.423 278.672 250.462 280.669C251.497 281.349 252.298 281.155 253.246 280.582C256.947 278.339 260.657 276.111 264.397 273.93C270.897 270.141 277.402 266.364 283.941 262.646C285.512 261.752 287.185 260.979 288.892 260.398C289.687 260.127 290.11 259.918 290.406 259.078C291.083 257.145 291.391 255.199 291.614 253.159C291.952 250.076 292.793 247.041 293.484 244.003C294.212 240.804 295.018 237.625 295.82 234.315C295.027 233.308 294.088 232.206 293.241 231.037C290.164 226.786 287.125 222.507 284.056 218.25C282.338 215.866 280.513 213.553 278.874 211.113C277.015 208.348 275.356 205.452 273.529 202.661C271.881 200.148 270.101 197.728 268.428 195.231C267.322 193.578 266.189 191.925 265.274 190.165C264.019 187.747 262.961 185.231 261.81 182.76C261.731 182.593 261.599 182.452 261.402 182.17C259.974 183.38 258.566 184.573 257.28 185.665C257.867 186.526 258.829 187.335 258.961 188.261C259.221 190.1 259.644 191.863 258.64 193.889C256.648 197.903 255.28 202.224 253.596 206.396C252.332 209.525 250.981 212.62 249.618 215.844C256.042 212.312 262.391 208.822 268.832 205.282C270.059 207 271.413 208.741 272.6 210.591C274.451 213.469 276.203 216.411 277.963 219.344C278.426 220.115 278.485 220.772 277.241 220.823C276.894 220.837 276.527 221.156 276.222 221.401C275.086 222.323 274.073 223.446 272.829 224.18C266.039 228.197 259.289 232.301 252.338 236.028C246.233 239.3 239.883 242.11 233.646 245.137C233.344 245.283 233.098 245.554 232.752 245.828C232.343 245.478 231.688 245.108 231.302 244.553C228.89 241.094 226.416 237.664 224.221 234.07C223.321 232.595 221.589 230.93 223.471 228.913C222.675 228.575 221.874 228.25 221.084 227.898C218.198 226.617 215.064 225.695 212.483 223.957C207.975 220.921 203.047 219.111 197.907 217.68C197.569 217.587 197.179 217.669 196.435 217.669L196.44 217.66ZM136.836 63.7436C136.281 63.9437 135.863 64.1725 135.423 64.24C133.889 64.4742 132.331 64.5786 130.808 64.8689C127.674 65.4642 124.559 65.2614 121.425 64.8972C120.977 64.8466 120.094 65.25 120.046 65.5462C119.572 68.5197 119.225 71.5155 118.861 74.5054C118.83 74.7592 118.912 75.05 119.011 75.2952C119.488 76.452 120.066 77.5745 120.449 78.7623C120.658 79.4054 120.368 80.2235 120.613 80.8415C121.53 83.1769 121.149 85.5834 121.081 87.953C121.044 89.2451 120.373 90.5258 120.382 91.8093C120.393 93.2226 119.931 94.3511 119.169 95.4145C117.984 97.0676 118.288 98.3765 120.026 99.3273C120.729 99.7106 121.541 100.241 121.851 100.912C122.481 102.269 122.805 103.77 123.239 105.169C124.703 105.056 126.055 104.735 127.296 106.233C126.309 106.904 125.414 107.511 124.568 108.086C124.858 108.447 125.115 108.786 125.394 109.105C126.943 110.862 127.899 113.096 130.337 114.109C132.746 115.11 134.952 115.378 137.598 114.938C139.914 114.552 141.508 113.144 143.429 112.264C145.291 111.409 147.096 110.233 148.447 108.515C149.195 107.564 150.222 106.837 151.277 105.869C151.353 109.717 149.534 112.092 146.588 113.66C147.525 114.949 148.571 116.115 149.302 117.455C151.121 120.789 151.249 124.445 150.163 127.926C149.254 130.84 147.742 133.599 146.236 136.279C145.077 138.341 143.511 140.177 141.894 142.434C143.948 141.619 145.7 140.922 147.452 140.231C148.033 140.002 148.69 139.884 149.187 139.534C150.766 138.423 152.335 137.289 153.813 136.05C156.213 134.036 158.507 131.895 160.907 129.878C163.291 127.872 165.76 125.971 168.169 123.993C170.036 122.462 171.779 120.766 173.74 119.367C175.08 118.408 176.699 117.847 178.18 117.079C178.592 116.865 178.956 116.557 179.43 116.23C179.077 115.94 178.922 115.751 178.722 115.658C176.776 114.766 174.775 114.047 173.492 112.081C172.733 110.919 172.129 109.754 172.55 108.481C172.981 107.169 173.444 105.64 175.551 105.626C175.057 104.969 174.795 104.241 174.369 104.131C173.579 103.925 172.66 103.942 171.864 104.143C171.48 104.241 171.277 104.986 170.953 105.409C170.727 105.705 170.431 105.948 170.166 106.213C168.6 107.776 166.724 108.899 164.549 109.121C162.591 109.322 160.513 109.152 158.905 107.818C156.044 105.448 155.376 100.495 157.328 97.3159C157.776 96.5853 158.625 95.6993 158.473 95.0845C158.146 93.7472 159.029 93.513 159.714 92.9405C160.775 92.0545 161.81 91.1325 162.789 90.1617C164.033 88.9292 165.212 87.6285 166.355 86.427C166.315 85.5552 166.329 84.6864 166.219 83.8314C166.106 82.9714 165.92 82.1109 165.678 81.2759C165.238 79.7609 162.778 79.1233 161.443 79.8908C160.047 80.6975 158.47 81.2025 156.939 81.7526C156.479 81.919 155.878 81.682 155.404 81.8315C152.857 82.6327 150.772 81.3917 148.899 80.0881C147.215 78.9177 145.86 77.2587 144.425 75.7551C143.894 75.1995 143.556 74.4602 143.119 73.8117C142.927 73.5295 142.707 73.2643 142.506 72.9876C141.037 70.9736 139.494 69.0046 138.131 66.9199C137.507 65.9664 137.245 64.7787 136.836 63.7436ZM96.1551 255.013C96.8041 254.102 97.3966 253.142 98.1131 252.291C100.751 249.165 103.755 246.801 108.212 247.055C110.878 247.205 113.433 246.671 115.149 244.677C115.067 242.175 114.912 239.825 114.929 237.475C114.951 234.073 115.081 230.668 115.205 227.266C115.259 225.776 115.371 224.284 115.538 222.803C115.866 219.87 116.238 216.938 116.607 214.01C117.028 210.67 117.225 207.279 117.975 204.013C118.576 201.389 117.989 199.053 117.521 196.585C116.212 197.708 115.041 198.791 113.789 199.764C112.023 201.138 110.444 202.588 110.373 205.054C110.367 205.257 110.127 205.48 109.955 205.652C108.579 207.034 107.205 208.419 105.806 209.776C103.056 212.447 100.519 215.418 97.4586 217.672C94.6998 219.706 91.3909 221.015 88.2538 222.496C87.4047 222.896 86.8404 223.359 86.7306 224.199C86.3045 227.393 86 230.6 85.5543 233.788C85.2749 235.799 85.196 237.898 83.4951 239.444C82.7193 240.146 82.1182 241.041 81.4245 241.864C87.4667 244.665 91.4866 249.617 96.1551 255.01V255.013ZM184.928 174.957C184.722 175.831 184.536 176.613 184.35 177.394C182.925 177.045 182.618 178.043 182.183 179.056C181.983 179.524 181.456 179.987 180.97 180.181C177.21 181.685 173.475 183.287 169.624 184.514C167.59 185.163 166.648 186.5 165.991 188.23C165.819 188.678 165.991 189.459 166.301 189.855C167.61 191.522 169.068 193.067 170.394 194.72C171.153 195.666 171.698 196.783 172.454 197.728C173.052 198.475 174.067 198.958 174.479 199.77C175.441 201.66 176.067 203.72 177.009 205.621C177.312 206.227 178.223 207.003 178.776 206.944C183.811 206.408 188.827 205.714 193.845 205.034C194.251 204.978 194.892 204.76 194.973 204.484C195.614 202.349 196.423 200.21 196.646 198.018C197.024 194.295 197.05 190.531 197.126 186.783C197.14 186.052 197.442 184.61 195.715 185.276C195.58 185.33 195.284 185.121 195.131 184.966C193.292 183.076 191.504 181.135 189.625 179.284C188.045 177.727 186.364 176.274 184.928 174.96V174.957ZM78.9109 243.275C76.9447 246.657 75.1362 249.862 73.2351 253.007C71.8951 255.224 70.3688 257.329 69.032 259.549C67.3278 262.381 65.7285 265.278 64.0923 268.15C63.9852 268.339 63.8553 268.568 63.8667 268.77C63.9966 271.132 64.1543 273.49 64.3238 276.167C65.3502 275.019 66.3178 273.86 67.373 272.782C68.6145 271.512 69.7849 270.085 71.2603 269.166C72.3833 268.466 72.716 267.614 72.8541 266.55C72.9726 265.625 72.7921 264.663 72.902 263.738C73.0601 262.415 73.3591 261.109 73.5988 259.794C73.757 259.811 73.9147 259.825 74.0728 259.842C75.602 264.223 74.8317 268.745 74.6877 273.318C75.3394 273.318 75.9912 273.346 76.6398 273.312C77.565 273.262 80.2139 271.53 80.0731 270.906C79.7372 269.425 80.4086 268.305 80.8488 267.008C81.9714 263.679 84.0561 261.318 87.1422 259.755C88.6881 258.974 90.2173 258.158 91.7801 257.413C92.0536 257.284 92.4629 257.433 93.0946 257.47C93.0946 257.47 93.3653 257.213 93.5936 256.923C93.848 256.601 94.0622 256.246 94.4008 255.744C89.5993 251.117 84.4823 246.866 78.9191 243.275H78.9109ZM310.511 418.315C310.585 419.187 310.497 419.965 310.729 420.634C311.741 423.537 311.772 426.555 311.772 429.551C311.772 432.008 311.459 434.465 311.225 436.919C311.05 438.759 310.932 440.626 310.517 442.417C309.631 446.24 308.627 450.037 307.563 453.814C305.848 459.899 303.473 465.642 298.626 470.013C296.449 471.977 294.051 473.422 290.999 473.312C289.992 473.28 288.987 473.098 287.98 472.984C289.653 474.352 291.227 475.664 293.484 475.641C296.361 475.605 298.92 476.134 301.456 473.331C304.94 469.484 307.434 465.227 309.202 460.542C311.222 455.191 312.892 449.687 313.778 444.003C314.227 441.136 314.666 438.256 314.867 435.365C315.005 433.382 314.672 431.373 314.641 429.373C314.59 426.163 314.396 422.995 313.62 419.847C313.318 418.625 312.641 418.445 311.713 418.326C311.31 418.273 310.892 418.318 310.506 418.318L310.511 418.315ZM20.8102 450.539C18.813 453.828 18.421 456.403 21.3972 458.969C24.9686 462.05 28.788 464.789 33.014 466.836C38.3739 469.434 44.0888 471.106 49.9988 471.886C55.3811 472.597 60.7888 473.267 66.2053 473.513C69.6974 473.672 73.2265 473.053 76.7332 472.724C77.0235 472.697 77.2747 472.237 77.7655 471.767C76.7555 471.84 76.2113 471.945 75.6808 471.904C71.3902 471.548 67.0799 471.33 62.8202 470.742C58.4279 470.14 54.0411 469.352 49.7281 468.322C43.4936 466.836 37.6259 464.416 32.0915 461.088C27.5975 458.386 23.1802 455.746 20.8161 450.539H20.8102ZM291.481 433.94C292.714 430.693 293.783 427.351 295.276 424.208C295.845 423.009 295.408 422.631 294.773 422.056C292.468 419.963 290.141 417.895 287.82 415.819C287.814 415.723 287.453 416.166 287.255 416.676C285.754 420.586 284.048 424.346 280.211 426.575C282.135 429.023 283.989 431.382 285.898 433.811C287.746 433.08 289.715 432.942 291.475 433.943L291.481 433.94ZM249.128 174.548C250.772 176.633 252.369 178.601 253.889 180.63C254.31 181.188 254.527 181.908 254.78 182.574C254.888 182.856 254.84 183.194 254.863 183.507C255.19 183.439 255.568 183.456 255.838 183.293C257.156 182.503 258.397 181.58 259.757 180.881C260.598 180.449 260.594 180.085 260.152 179.4C259.474 178.348 258.829 177.276 258.227 176.179C256.355 172.768 253.511 170.167 250.865 167.414C250.132 166.652 248.955 165.549 248.205 165.701C245.435 166.263 242.758 167.287 239.892 168.184C242.001 169.532 244.058 170.669 245.889 172.093C246.679 172.711 247.474 172.635 247.847 172.26C248.763 171.338 249.728 171.687 250.701 171.789C250.958 171.815 251.333 172.091 251.384 172.314C251.438 172.557 251.246 172.951 251.034 173.132C250.456 173.628 249.81 174.049 249.124 174.548H249.128ZM277.159 183.97C277.069 183.857 276.978 183.741 276.888 183.629C275.977 183.984 274.922 184.156 274.189 184.737C272.688 185.922 271.354 187.319 269.98 188.658C269.83 188.805 269.746 189.251 269.853 189.395C270.829 190.729 271.96 191.964 272.826 193.364C273.311 194.151 274.045 194.698 274.389 195.685C275.156 197.883 275.754 198.109 277.723 197.389C278.835 196.983 279.328 197.496 279.867 198.255C280.477 199.113 280.237 199.838 279.554 200.481C279.153 200.859 278.688 201.169 278.242 201.516C278.603 202.162 278.951 202.78 279.295 203.401C279.323 203.274 279.351 203.144 279.376 203.017C280.578 202.978 281.8 203.054 282.976 202.853C283.594 202.749 284.155 202.196 284.682 201.776C284.812 201.674 284.821 201.197 284.697 201.04C283.667 199.727 283.712 199.372 285.1 198.645C286.409 197.959 286.463 197.262 285.213 196.272C284.347 197.609 283.326 197.279 282.243 196.359V193.539C281.532 193.415 280.508 193.516 279.884 193.068C278.866 192.334 278.846 190.955 279.143 189.886C279.636 188.108 281.314 188.365 282.829 188.424C282.761 187.756 282.897 187.045 282.618 186.796C282.028 186.269 281.258 185.778 280.496 185.643C279.509 185.465 279.797 186.418 279.611 187.002C279.368 187.767 278.956 188.515 278.46 189.149C278.183 189.502 277.475 189.88 277.162 189.753C276.677 189.556 276.203 188.997 276.008 188.484C275.368 186.794 275.791 185.265 277.154 183.975L277.159 183.97ZM171.43 136.812L171.748 137.077C170.975 137.915 170.327 138.984 169.376 139.492C168.868 139.763 167.842 139.063 166.755 138.708C166.42 141.046 166.064 143.509 165.771 145.557C167.438 146.35 168.679 146.942 169.658 147.407C170.992 146.928 172.296 146.46 173.661 145.969C173.907 146.527 174.098 146.97 174.293 147.413C174.431 147.407 174.572 147.402 174.711 147.399C174.711 144.99 174.739 142.578 174.694 140.169C174.68 139.464 174.431 138.764 174.35 138.053C174.288 137.523 174.208 136.956 174.335 136.451C174.801 134.578 174.674 132.504 176.395 130.958C175.145 131.241 173.988 131.884 173.21 131.576C172.372 131.243 171.89 130.016 171.153 129.054C170.629 129.988 170.087 130.95 169.638 131.746C170.273 132.583 170.798 133.269 171.297 133.974C171.32 134.005 171.083 134.329 170.947 134.343C169.85 134.451 168.753 134.519 167.523 134.606C167.935 135.712 168.332 136.778 168.846 138.157C169.695 137.718 170.561 137.266 171.43 136.815V136.812ZM171.018 148.282C171.407 149.227 171.715 149.969 172.022 150.714C171.923 150.77 171.827 150.827 171.729 150.883C171.345 150.454 170.959 150.028 170.372 149.374C171.077 151.938 169.06 152.53 167.582 153.554C169.04 153.754 170.29 153.924 171.613 154.105C171.526 153.667 171.435 153.208 171.258 152.327C172.011 152.863 172.775 153.12 172.854 153.515C173.224 155.329 173.402 157.185 173.613 158.751C171.348 159.448 169.379 160.054 167.314 160.689C167.641 164.579 169.049 168.22 170.662 171.369C172.194 171.287 173.591 170.869 174.722 171.244C175.873 171.625 176.767 172.788 177.715 173.561C177.148 171.693 176.539 169.682 175.946 167.724C174.541 167.817 173.227 169.558 171.65 168.48C170.377 167.614 169.703 163.981 170.259 162.596C171.049 160.615 172.764 160.917 174.482 161.12C174.329 159.089 174.138 157.236 174.07 155.377C173.999 153.458 174.056 151.534 174.056 149.557C173.368 150.028 172.623 150.471 172.118 149.464C172.569 148.632 172.984 147.87 173.399 147.106C173.28 147.035 173.162 146.965 173.043 146.894C172.369 147.357 171.692 147.817 171.021 148.277L171.018 148.282ZM235.57 124.606C238.216 125.026 240.14 126.276 241.356 128.541C242.58 130.817 242.069 133.187 241.604 135.667C244.541 132.989 243.688 127.421 240.013 124.665C241.584 124.981 242.642 125.951 243.322 127.401C243.97 128.784 244.622 130.163 245.223 131.447C246.93 128.747 246.357 124.792 243.976 122.724C241.979 120.992 238.379 121.796 235.57 124.606ZM159.912 96.6131C159.912 98.1847 159.757 99.7671 159.954 101.304C160.18 103.065 161.683 103.99 163.032 104.848C165.077 106.148 167.359 105.849 170.304 103.996C165.686 103.011 164.211 99.5502 163.421 95.7134C162.27 96.0097 161.221 96.2777 159.912 96.6163V96.6131ZM231.195 153.379C234.766 153.035 235.389 152.466 237.996 150.832C241.491 148.643 241.908 145.03 239.119 142.412C238.834 142.146 238.179 141.887 237.954 142.031C237.55 142.29 237.248 142.82 237.076 143.3C236.91 143.763 237.003 144.316 236.901 144.812C236.351 147.478 234.664 149.489 232.935 151.444C232.354 152.105 231.536 152.556 230.828 153.103C231.406 153.82 231.979 154.539 232.566 155.247C232.597 155.284 232.709 155.253 232.768 155.253C232.831 154.756 232.89 154.271 232.943 153.842C232.376 153.692 231.784 153.535 231.195 153.377V153.379ZM175.777 122.295C176.327 122.583 176.761 122.809 177.004 122.933C176.163 123.162 175.263 123.407 174.364 123.649C174.047 123.435 173.624 123.15 173.204 122.865C173.08 122.998 172.956 123.13 172.832 123.263C173.351 123.914 173.791 124.992 174.412 125.11C175.176 125.254 176.096 124.6 176.95 124.29C176.417 126.293 174.533 126.383 173.021 127.003C174.11 128.112 176.448 127.201 176.71 129.934C179.388 124.372 183.732 121.751 189.044 120.546C189.103 119.796 189.154 119.133 189.188 118.684C188.197 118.538 187.264 118.4 186.096 118.231C185.932 118.459 185.566 118.969 185.128 119.579C185.932 119.725 186.626 119.852 187.323 119.979C187.309 120.129 187.295 120.278 187.281 120.425C186.228 120.312 185.176 120.199 184.034 120.078C181.529 123.61 179.941 123.912 176.86 121.187C176.522 121.531 176.177 121.884 175.78 122.29L175.777 122.295ZM234.388 161.49C232.187 159.493 229.849 157.374 227.488 155.233C227.587 157.021 226.094 157.577 225.008 158.381C226.142 161.196 227.917 163.34 230.972 163.946C232.142 163.106 233.361 162.229 234.388 161.49ZM97.738 44.248C98.3301 41.774 98.6687 39.3 99.5406 37.0319C100.336 34.9642 101.747 33.1531 103.891 32.0557C103.476 32.0021 103.07 31.9994 102.672 32.0614C98.5616 32.6989 95.2075 36.7188 95.1597 41.0546C95.1342 43.1393 95.6136 43.7317 97.738 44.2451V44.248ZM244.467 162.632C243.999 162.387 243.601 162.169 243.192 161.967C242.625 161.684 241.973 161.083 241.499 161.199C240.196 161.515 238.396 161.792 237.843 162.714C236.989 164.136 235.751 164.226 234.585 164.759C234.365 164.861 234.17 165.022 233.965 165.154C234.01 165.281 234.055 165.408 234.097 165.535C237.671 165.075 240.927 163.323 244.467 162.635V162.632ZM164.496 150.612C164.795 150.931 165.218 151.752 165.847 151.972C166.854 152.322 168.44 150.965 168.51 149.952C168.584 148.877 167.7 147.551 166.891 147.506C165.539 147.43 164.812 147.983 164.493 150.612H164.496ZM121.205 111.914C120.297 115.92 120.359 118.467 124.156 120.656C122.901 117.957 121.877 115.418 122.833 112.8C122.173 112.442 121.682 112.174 121.205 111.914ZM233.011 62.0851C234.85 58.917 232.077 52.3611 228.289 50.9309C229.062 52.1692 230.049 53.2553 230.825 54.4768C231.612 55.7179 232.19 57.0948 232.904 58.505C232.585 58.0537 232.36 57.732 232.134 57.4106C231.987 57.526 231.838 57.6417 231.691 57.7575C232.131 59.1991 232.571 60.6407 233.014 62.0851H233.011ZM171.89 165.405C171.884 166.836 172.076 166.979 174.022 166.974C174.987 166.974 176.16 165.741 176.104 164.649C176.034 163.287 174.826 163.402 173.983 163.343C172.49 163.241 171.898 163.921 171.89 165.408V165.405ZM120.139 47.9943C119.925 48.7445 119.657 49.1675 119.733 49.5175C120.145 51.4555 120.664 53.3711 121.101 55.3031C122.116 59.7802 127.07 60.9707 130.963 59.4926C129.967 59.4926 129.124 59.5487 128.292 59.4812C125.372 59.2524 123.169 58.2597 121.84 55.2298C120.847 52.9618 120.627 50.6743 120.139 47.9943ZM297.882 228.335C296.925 225.288 294.624 223.477 292.268 221.714C292.172 221.791 292.074 221.867 291.978 221.94C293.588 224.502 295.199 227.06 296.897 229.76C297.278 229.207 297.58 228.769 297.879 228.332L297.882 228.335ZM171.808 154.694C169.654 155.527 168.37 156.922 167.954 158.877C169.39 158.621 170.755 158.378 172.208 158.118C172.073 156.962 171.946 155.867 171.808 154.694ZM294.288 444.651C292.412 444.725 290.922 443.492 289.408 444.781C289.106 445.038 288.702 445.455 288.739 445.749C288.776 446.04 289.295 446.468 289.625 446.494C291.258 446.612 292.815 446.372 294.285 444.655L294.288 444.651ZM295.78 448.657C294.2 448.31 292.833 448.308 291.823 449.631C291.529 450.014 291.419 450.536 291.221 450.996C291.673 451.148 292.184 451.52 292.564 451.419C293.958 451.041 295.12 450.274 295.78 448.66V448.657ZM127.959 26.1346C125.036 26.7157 121.871 30.6481 122.706 32.6989C124.438 30.5324 126.255 28.2644 127.959 26.1346ZM46.4812 448.706C45.6234 448.189 44.9748 447.554 44.2524 447.461C43.8236 447.405 42.9603 448.133 42.8592 448.626C42.6445 449.681 43.9731 450.787 45.1777 450.759C46.5938 450.725 45.5984 449.467 46.4812 448.708V448.706ZM237.282 87.005C236.724 85.1235 235.339 84.4071 233.612 84.2097C233.268 84.1701 232.893 84.4298 232.532 84.5511C232.721 84.7512 232.898 84.9599 233.096 85.1518C233.55 85.5861 234.063 85.9699 234.461 86.4521C235.251 87.4056 236.112 87.8149 237.282 87.0082V87.005ZM225.076 99.5893C231.776 100.659 233.327 104.681 232.114 110.495C232.557 107.827 233.587 105.324 231.937 102.661C230.337 100.075 228.12 99.4768 225.076 99.5893ZM192.037 116.425C191.684 116.8 191.19 117.215 190.844 117.731C190.556 118.157 190.203 118.78 190.327 119.175C190.454 119.584 191.092 120.033 191.557 120.098C192.547 120.239 193.571 120.14 194.584 120.14L194.576 119.962C194.172 119.799 193.766 119.632 193.721 119.616C193.041 118.332 192.522 117.347 192.034 116.425H192.037ZM50.6985 449.834C51.2768 447.613 49.8184 446.902 48.3654 445.975C48.0974 446.203 47.3134 446.57 47.302 446.954C47.2879 447.464 47.776 448.127 48.2327 448.483C48.9296 449.021 49.7901 449.351 50.6957 449.834H50.6985ZM220.08 137.004C220.455 133.653 218.768 131.263 217.561 128.758C217.025 127.647 216.091 127.604 215.383 128.335C218.528 130.222 218.954 133.653 220.08 137.004ZM180.702 21.449C181.794 21.8129 182.863 22.2614 183.98 22.5153C184.829 22.71 185.74 22.6168 186.615 22.7269C187.222 22.803 187.811 23.0089 188.607 23.2093C187.013 21.3446 184.736 20.7945 180.702 21.449ZM209.121 62.6206C209.842 61.0919 208.813 58.2201 207.606 57.5857C205.493 56.4768 201.419 57.309 200.325 59.6334C202.178 58.0989 203.893 57.5036 206.133 57.9972C208.644 58.5528 208.663 60.4771 209.121 62.6206ZM124.844 279.527C126.969 281.155 128.799 282.557 130.608 283.942C131.093 283.361 131.149 282.92 130.249 282.528C129.64 282.263 128.723 281.71 128.701 281.248C128.593 279.118 127.237 279.397 125.877 279.527C125.657 279.547 125.434 279.53 124.847 279.53L124.844 279.527ZM159.057 62.9902L158.62 63.1739C159.071 64.1187 159.28 65.4108 160.027 65.924C161.15 66.697 162.622 67.027 163.994 67.3429C164.648 67.4928 165.407 67.1797 166.118 67.0753C166.129 66.9482 166.141 66.8242 166.152 66.697C163.266 66.4122 160.422 66.0567 159.057 62.9875V62.9902ZM51.7901 445.769C51.2399 447.613 51.2568 447.681 52.3429 447.949C53.2626 448.175 54.5662 447.34 54.7717 446.361C54.8141 446.158 54.7972 445.873 54.6815 445.721C53.7312 444.48 52.8028 446.341 51.7901 445.769ZM283.958 209.748C283.797 209.863 283.633 209.979 283.472 210.098C285.145 212.363 286.815 214.628 288.488 216.891C287.199 214.354 286.432 211.455 283.958 209.748ZM236.287 126.91C236.176 129.111 236.783 130.29 238.086 130.518C238.312 128.408 237.928 127.607 236.287 126.91ZM182.849 119.991C181.625 119.063 180.745 118.391 179.605 117.528V120.247C180.564 120.171 181.534 120.095 182.849 119.991ZM201.67 29.8808C202.677 29.4267 203.586 29.0204 204.491 28.6114C204.503 28.5155 204.517 28.4196 204.528 28.3265C203.284 28.1882 202.043 28.05 200.429 27.8723C201.027 28.8399 201.337 29.342 201.67 29.8808ZM173.48 131.029C174.412 130.262 175.193 129.616 176.048 128.913C174.744 128.786 173.765 128.691 172.702 128.589C172.911 129.241 173.142 129.963 173.484 131.029H173.48ZM131.784 27.641C130.788 28.4788 129.981 29.153 129.129 29.8724C130.476 30.7168 131.361 29.9729 131.784 27.641ZM223.036 51.419C221.928 50.646 221.919 49.7855 219.995 52.6063C221.335 53.2157 222.1 52.2367 223.036 51.419ZM266.245 211.796C264.719 212.484 263.19 213.172 261.63 213.877C262.603 214.588 265.024 213.573 266.245 211.796ZM110.424 41.9658C111.185 41.7363 112.017 40.8919 112.92 39.4326C111.899 39.1222 110.503 40.4622 110.424 41.9658ZM238.402 360.133C238.284 360.277 238.162 360.421 238.044 360.565C239.561 361.817 241.076 363.07 242.594 364.325L242.938 363.91C241.426 362.652 239.914 361.394 238.402 360.136V360.133ZM207.849 67.239C208.006 67.1879 208.167 67.1373 208.325 67.0863C207.859 65.5011 207.484 63.8817 206.898 62.3417C206.559 61.4474 205.786 61.199 205.008 61.828C207.546 62.8325 207.405 65.1934 207.849 67.239ZM159.63 71.8085C159.647 71.9977 159.666 72.1868 159.683 72.3787C161.48 72.2771 163.274 72.1727 165.071 72.0711C165.06 71.9836 165.051 71.8961 165.04 71.8085H159.63ZM147.973 22.6959C147.942 22.6197 147.911 22.5407 147.88 22.4645C146.484 23.1077 145.087 23.7452 143.702 24.4138C143.632 24.4476 143.68 24.7297 143.671 24.8962C143.9 24.8877 144.171 24.9611 144.346 24.8595C145.564 24.1571 146.766 23.4208 147.971 22.6959H147.973ZM136.822 22.7833C136.159 21.2317 135.646 21.2402 134.001 23.0682C135.099 22.9582 135.956 22.8708 136.822 22.7833ZM282.559 193.209H284.09C284.29 192.452 285.224 191.617 283.8 191.228C283.365 191.922 282.984 192.529 282.559 193.209ZM249.079 229.61C249.249 229.633 249.418 229.655 249.59 229.678C249.646 228.908 249.66 228.129 249.771 227.367C249.861 226.738 250.067 226.126 250.219 225.506C250.036 225.472 249.852 225.435 249.666 225.401C249.472 226.806 249.274 228.208 249.079 229.613V229.61ZM259.627 170.762C258.82 168.192 257.996 167.329 257.254 167.966C257.991 168.836 258.727 169.702 259.627 170.762ZM103.938 53.1592C103.487 54.1578 103.098 55.0155 102.708 55.8733C103.843 55.3287 104.878 54.7389 103.938 53.1592ZM125.6 32.1912C125.792 32.3097 125.987 32.4281 126.179 32.5438C126.689 31.6213 127.2 30.6989 127.708 29.7765C127.6 29.72 127.496 29.6636 127.389 29.6072C126.791 30.4676 126.196 31.3308 125.598 32.1912H125.6ZM111.628 78.3421C111.687 78.2008 111.747 78.0599 111.806 77.9187C110.858 77.5098 109.91 77.101 108.962 76.689C108.898 76.8412 108.836 76.9934 108.77 77.1461C109.724 77.5436 110.675 77.9414 111.628 78.3393V78.3421ZM126.622 133.616C126.715 133.65 126.805 133.684 126.898 133.717L127.332 132.73C127.256 132.696 127.177 132.659 127.101 132.626C126.943 132.956 126.783 133.286 126.625 133.616H126.622ZM184.274 174.926C184.352 174.853 184.431 174.782 184.511 174.709C184.313 174.545 184.115 174.379 183.918 174.215C183.867 174.272 183.814 174.328 183.763 174.384C183.932 174.565 184.104 174.746 184.274 174.926ZM125.812 32.5664L125.595 32.3858C125.425 32.6143 125.256 32.8428 125.087 33.0713C125.143 33.1221 125.2 33.1701 125.256 33.2208C125.443 33.0036 125.626 32.7836 125.812 32.5664ZM199.518 59.7743C200.046 59.7182 200.184 59.7041 200.322 59.69C200.305 59.5856 200.288 59.4812 200.271 59.3741C200.139 59.4443 200.006 59.5149 199.518 59.7716V59.7743ZM108.519 76.1079C108.387 76.2008 108.294 76.266 108.198 76.3335C108.265 76.3873 108.328 76.4775 108.401 76.483C108.5 76.4916 108.604 76.4378 108.706 76.4096C108.652 76.3221 108.599 76.2346 108.519 76.1079Z" fill="#190D26"/>
<path d="M125.954 315.308C122.555 315.094 119.153 314.882 115.525 314.654C116.095 313.266 116.524 312.222 116.848 311.429H121.838C121.858 311.28 121.878 311.13 121.898 310.978C120.448 310.775 118.998 310.572 117.345 310.343C118.14 308.493 118.95 306.605 119.762 304.712C120.738 305.728 121.971 305.827 122.817 305.223C123.458 304.766 123.996 303.46 123.805 302.741C123.605 301.987 122.473 301.483 121.627 300.766C122.025 299.942 122.6 298.749 122.961 298.004C124.093 297.708 124.88 297.505 125.666 297.299L125.635 297.333C126.104 296.848 127.023 296.281 126.953 295.897C126.778 294.966 126.14 294.123 125.689 293.246C125.559 293.285 125.429 293.327 125.3 293.367C125.678 292.746 126.016 292.097 126.451 291.519C126.623 291.29 127.015 291.088 127.294 291.104C129.788 291.257 132.279 291.429 134.761 291.688C135.055 291.719 135.568 292.407 135.5 292.653C135.052 294.227 134.51 295.779 133.924 297.307C133.204 299.183 132.473 301.059 131.636 302.885C129.856 306.755 127.997 310.589 126.18 314.439C126.047 314.724 126 315.046 125.912 315.351L125.96 315.302L125.954 315.308Z" fill="#190D26"/>
<path d="M121.18 304.921C120.983 304.676 120.436 304.281 120.317 303.782C120.131 303.003 121.386 301.753 122.162 301.925C122.529 302.007 122.986 302.541 123.06 302.935C123.246 303.951 122.473 304.885 121.18 304.921Z" fill="#190D26"/>
<path d="M125.668 297.299H123.685C123.651 295.581 124.898 295.392 126.424 294.884C126.1 295.889 125.868 296.611 125.634 297.33L125.665 297.299H125.668Z" fill="#190D26"/>
<path d="M225.082 99.5779C228.129 99.4653 230.343 100.063 231.943 102.65C233.59 105.313 232.563 107.815 232.121 110.484C233.336 104.673 231.782 100.647 225.082 99.5779Z" fill="#FFFCF9"/>
<path d="M220.086 136.995C218.961 133.644 218.535 130.217 215.39 128.326C216.1 127.596 217.034 127.638 217.567 128.75C218.775 131.255 220.462 133.644 220.086 136.995Z" fill="#FFFCF9"/>
<path d="M209.127 62.6098C208.67 60.4658 208.65 58.542 206.14 57.9859C203.903 57.4896 202.184 58.0848 200.331 59.6222C201.423 57.2977 205.499 56.4655 207.612 57.5744C208.82 58.2088 209.849 61.0806 209.127 62.6098Z" fill="#FFFCF9"/>
<path d="M223.071 65.9241C222.346 65.2331 221.734 64.3193 220.879 63.8959C218.431 62.6831 217.373 62.4151 215.57 64.5531C215.734 63.5828 217.7 61.978 218.682 62.0172C220.538 62.0933 222.987 64.0344 223.272 65.662C223.207 65.7495 223.139 65.8366 223.074 65.9241H223.071Z" fill="#FFFCF9"/>
<path d="M159.063 62.9788C160.429 66.0452 163.275 66.4035 166.158 66.6888C166.147 66.8155 166.135 66.9394 166.124 67.0666C165.413 67.171 164.651 67.4841 164 67.3346C162.629 67.0187 161.154 66.6883 160.033 65.9158C159.286 65.4021 159.077 64.11 158.626 63.1652L159.063 62.982V62.9788Z" fill="#FFFCF9"/>
<path d="M162.328 44.7924C160.641 44.8516 158.901 44.8149 157.834 46.4707C157.386 47.1676 157.056 47.9433 156.551 48.9137C156.153 47.2355 157.081 46.251 157.944 45.3171C158.988 44.1915 160.842 44.0363 162.286 44.8347L162.328 44.7924Z" fill="#FFFCF9"/>
<path d="M162.284 44.8346C162.527 44.7613 162.772 44.6852 163.015 44.6118C163.074 44.6965 163.136 44.781 163.195 44.8629C162.425 46.4397 161.41 47.9601 162.055 49.8589C161.996 49.9518 161.937 50.0476 161.878 50.141C160.93 48.5722 161.122 47.0376 162.008 45.5173C162.14 45.2916 162.219 45.0349 162.321 44.7951L162.278 44.8374L162.284 44.8346Z" fill="#FFFCF9"/>
<path d="M207.855 67.2217C207.412 65.1767 207.554 62.8158 205.015 61.8112C205.793 61.1823 206.566 61.4302 206.905 62.3244C207.491 63.865 207.867 65.4843 208.332 67.0695C208.174 67.1201 208.013 67.1711 207.855 67.2217Z" fill="#FFFCF9"/>
<path d="M159.636 71.7917H165.046C165.058 71.8793 165.066 71.9668 165.077 72.0543C163.28 72.1559 161.486 72.2603 159.689 72.3619C159.672 72.1728 159.653 71.9836 159.636 71.7917Z" fill="#FFFCF9"/>
<path d="M130.53 54.3361H135.312C135.303 54.522 135.295 54.7084 135.286 54.8944C133.622 55.4217 132.003 55.2358 130.426 54.4062L130.528 54.3361H130.53Z" fill="#FFFCF9"/>
<path d="M103.94 53.1396C104.882 54.7194 103.847 55.3091 102.71 55.8533C103.099 54.996 103.486 54.1382 103.94 53.1396Z" fill="#FFFCF9"/>
<path d="M125.601 32.1715C126.199 31.3111 126.794 30.4479 127.392 29.5875C127.499 29.6439 127.604 29.7004 127.711 29.7568C127.2 30.6792 126.689 31.6017 126.182 32.5241C125.99 32.4057 125.795 32.2872 125.603 32.1715H125.601Z" fill="#FFFCF9"/>
<path d="M223.269 65.6592C223.7 66.6268 224.132 67.5912 224.564 68.5588C224.453 68.6012 224.346 68.6436 224.236 68.6887C223.847 67.7662 223.457 66.8437 223.068 65.9212C223.133 65.8337 223.201 65.7462 223.265 65.6592H223.269Z" fill="#FFFCF9"/>
<path d="M163.016 44.6119C163.32 44.3862 163.628 44.1605 163.933 43.9348C163.981 43.9941 164.028 44.0562 164.076 44.1154C163.783 44.3636 163.49 44.6147 163.196 44.863C163.137 44.7783 163.075 44.6937 163.016 44.6119Z" fill="#FFFCF9"/>
<path d="M129.842 54.1496C129.559 54.0142 129.277 53.8816 128.995 53.7462C129.043 53.6528 129.091 53.5571 129.139 53.4641C129.435 53.6277 129.731 53.7914 130.025 53.9577C129.96 54.0197 129.9 54.0844 129.838 54.1496H129.842Z" fill="#FFFCF9"/>
<path d="M125.813 32.5467C125.628 32.7638 125.444 32.9839 125.258 33.2011C125.201 33.1503 125.145 33.1024 125.089 33.0516C125.258 32.8231 125.427 32.5946 125.597 32.3661L125.813 32.5467Z" fill="#FFFCF9"/>
<path d="M174.999 177.961C175.089 178.055 175.179 178.148 175.267 178.241C175.12 178.325 174.973 178.41 174.827 178.494C174.883 178.317 174.94 178.139 174.996 177.961H174.999Z" fill="#FFFCF9"/>
<path d="M162.476 50.2961C162.496 50.4342 162.516 50.5728 162.535 50.7109C162.451 50.6348 162.366 50.5555 162.281 50.4794C162.349 50.4228 162.414 50.3609 162.476 50.2989V50.2961Z" fill="#FFFCF9"/>
<path d="M130.428 54.4061C130.234 54.3213 130.036 54.2338 129.842 54.1495C129.901 54.0843 129.963 54.0196 130.028 53.9576C130.194 54.0843 130.361 54.2115 130.53 54.3387C130.533 54.3387 130.431 54.4061 130.431 54.4061H130.428Z" fill="#FFFCF9"/>
<path d="M162.283 50.4764C162.15 50.3638 162.015 50.2508 161.882 50.1382C161.941 50.0448 162 49.9491 162.06 49.8561C162.198 50.0028 162.339 50.1464 162.477 50.2932C162.415 50.3552 162.351 50.4171 162.283 50.4737V50.4764Z" fill="#FFFCF9"/>
<path d="M199.518 59.7547C200.004 59.4981 200.136 59.4275 200.272 59.3568C200.289 59.4612 200.305 59.5656 200.322 59.6731C200.184 59.6872 200.046 59.7014 199.518 59.7574V59.7547Z" fill="#FFFCF9"/>
<path d="M176.959 176.5C176.956 176.424 176.985 176.362 177.043 176.314C177.075 176.401 177.044 176.463 176.959 176.5Z" fill="#FFFCF9"/>
<path d="M146.407 198.628C146.525 200.817 145.061 200.309 144.034 200.636C140.102 201.886 136.017 201.567 132.003 201.928C131.064 202.013 129.833 201.914 129.836 200.771C129.836 199.618 131.064 199.7 131.991 199.677C135.397 199.595 138.807 199.556 142.209 199.369C143.614 199.293 145.002 198.884 146.407 198.625V198.628Z" fill="#190D26"/>
<path d="M152.908 256.869C151.641 257.109 150.618 257.385 149.58 257.481C146.07 257.808 142.555 258.079 139.043 258.353C138.677 258.381 138.211 258.415 137.954 258.226C137.545 257.921 137.272 257.43 136.941 257.018C137.37 256.807 137.788 256.44 138.228 256.409C141.421 256.175 144.618 256.012 147.811 255.817C148.601 255.769 149.396 255.729 150.175 255.6C151.25 255.422 152.07 255.741 152.905 256.869H152.908Z" fill="#190D26"/>
<path d="M208.441 262.404C202.119 261.087 195.801 259.766 189.479 258.446C189.507 258.31 189.535 258.175 189.563 258.04C196.057 258.519 202.3 260.212 208.514 262.051C208.489 262.169 208.467 262.285 208.441 262.404Z" fill="#190D26"/>
<path d="M205.764 207.404C206.52 203.186 207.231 199.195 207.953 195.206C208.032 194.763 208.074 194.25 208.328 193.914C208.87 193.192 209.202 192.018 210.472 192.368C211.722 192.712 211.099 193.809 211.07 194.501C210.881 198.718 209.609 202.667 207.646 206.368C207.343 206.938 206.627 208.075 205.764 207.404Z" fill="#190D26"/>
<path d="M243.686 248.999C246.078 249.123 246.132 249.14 246.835 246.852C248.056 242.872 250.696 240.107 253.91 237.576C256.423 235.597 259.035 234.084 262.119 233.43C268.175 232.146 273.822 233.049 278.471 237.359C281.281 239.966 283.171 243.156 283.363 247.241C283.73 255.134 280.359 261.025 273.916 265.205C270.141 267.654 265.876 267.902 261.416 267.476C256.017 266.962 252.135 264.268 248.919 260.195C248.682 259.893 248.084 259.769 247.644 259.752C246.341 259.707 245.032 259.718 243.729 259.783C243.007 259.82 242.234 259.876 241.585 260.158C239.015 261.27 236.922 260.931 234.961 258.934C231.974 255.89 232.115 252.48 234.563 249.532C235.525 248.375 236.964 247.509 238.34 246.824C240.992 245.506 242.092 246.034 243.689 248.996L243.686 248.999ZM252.84 247.521C252.296 246.55 252.741 245.859 253.616 245.732C255.687 245.433 257.724 245.444 259.224 247.354C260.815 249.377 261.137 253.047 259.064 254.505C257.312 255.738 255.176 256.517 254.378 258.827C254.702 259.228 255.111 259.733 255.379 260.062C255.901 259.834 256.446 259.366 256.863 259.459C257.591 259.622 257.952 260.243 257.864 261.112C257.825 261.493 258.07 262.046 258.375 262.283C258.962 262.742 259.681 263.03 260.039 263.225C260.829 262.759 261.416 262.159 262.022 262.136C262.511 262.119 263.024 262.799 263.529 263.171C263.23 263.433 262.928 263.696 262.626 263.958C266.432 265.437 272.982 263.814 276.689 259.197C280.982 253.845 281.101 247.715 277.329 241.585C275.019 237.828 267.969 234.053 261.382 236.273C255.142 238.375 252.158 242.592 251.562 247.912C251.958 247.791 252.338 247.675 252.846 247.521H252.84ZM250.381 249.588C248.987 249.87 247.252 250.22 245.404 250.592C245.839 252.604 246.25 254.511 246.707 256.621C248.778 256.116 250.659 255.659 252.409 255.233C251.735 253.36 251.094 251.571 250.383 249.588H250.381ZM252.296 249.033C252.544 251.1 252.775 253.004 253.03 255.115C253.935 254.629 254.77 254.059 255.689 253.718C256.945 253.253 257.311 252.257 257.046 251.216C256.304 248.308 255.441 247.535 252.293 249.036L252.296 249.033ZM241.009 251.1C241.009 252.257 240.939 253.374 241.023 254.48C241.181 256.539 242.383 257.552 244.16 257.216C244.73 257.109 245.291 256.957 245.949 256.801C244.722 254.987 243.539 253.165 244.434 250.705C243.285 250.838 242.242 250.959 241.006 251.1H241.009ZM239.59 251.399C238.044 251.256 236.487 252.291 236.216 253.617C235.943 254.956 237.266 256.46 239.305 257.067C238.459 255.115 238.499 253.227 239.59 251.399Z" fill="#190D26"/>
<path d="M216.607 237.238C217.146 238.174 217.623 238.987 218.083 239.811C219.154 241.723 220.215 243.644 221.285 245.557C222.402 247.56 223.553 249.543 224.625 251.571C224.862 252.017 224.825 252.606 224.912 253.128C224.743 253.199 224.577 253.272 224.407 253.343C223.64 252.353 222.842 251.385 222.111 250.369C220.08 247.54 218.049 244.708 216.074 241.839C215.259 240.654 215.411 238.445 216.607 237.241V237.238Z" fill="#190D26"/>
<path d="M121.974 80.3365C122.191 79.5015 122.166 78.6579 122.574 78.229C123.492 77.2619 124.507 76.2318 125.694 75.699C128.865 74.2797 131.994 75.112 134.981 76.472C135.32 76.627 135.534 77.5185 135.446 78.0007C135.382 78.3648 134.772 78.816 134.343 78.8922C132.321 79.2559 130.267 79.4336 128.25 79.8201C127.108 80.0403 126.005 80.5056 124.91 80.9231C123.246 81.5552 123.255 81.5776 121.977 80.3365H121.974Z" fill="#190D26"/>
<path d="M124.67 84.7849C125.697 84.7116 126.724 84.6044 127.75 84.5707C128.783 84.537 129.821 84.5229 130.845 84.6131C131.279 84.6496 131.689 84.9713 132.106 85.166C131.83 85.6427 131.599 86.4945 131.271 86.5342C129.539 86.737 129.471 87.7867 129.536 89.1576C129.562 89.6877 129.045 90.241 128.775 90.7852C128.078 90.4156 127.133 90.2155 126.735 89.6371C125.821 88.3167 125.175 86.8104 124.422 85.3829C124.503 85.1828 124.588 84.9855 124.67 84.7849Z" fill="#190D26"/>
<path d="M162.444 84.692C162.751 85.877 162.963 86.6979 163.245 87.7894C162.712 87.578 162.373 87.5073 162.105 87.3268C160.661 86.3538 160.675 86.3478 159.781 87.8514C159.558 88.2265 159.273 88.5624 158.813 89.1973C158.444 87.2029 158.557 85.6737 159.315 84.187C160.094 82.6583 161.169 81.4793 163.031 81.1096C163.417 81.42 164.052 81.8316 164.542 82.3735C164.732 82.5822 164.748 83.2928 164.579 83.4199C163.877 83.9445 163.076 84.331 162.444 84.692Z" fill="#190D26"/>
<path d="M99.8971 243.791C98.4441 242.614 96.9943 241.435 95.5413 240.259C94.8645 239.712 94.1111 239.232 93.5327 238.595C93.1125 238.132 92.9265 237.458 92.6357 236.877C93.0364 236.781 93.6289 236.465 93.8066 236.623C95.2902 237.943 96.7063 239.342 98.1283 240.73C98.7349 241.323 99.3411 241.918 99.883 242.567C100.1 242.826 100.14 243.232 100.261 243.571C100.14 243.644 100.018 243.717 99.8999 243.791H99.8971Z" fill="#190D26"/>
<path d="M103.968 244.818C105.322 243.455 106.775 244.197 108.041 243.943C108.039 244.324 108.149 244.984 108.013 245.041C107.099 245.413 106.146 245.768 105.176 245.884C104.851 245.924 104.439 245.255 103.965 244.815L103.968 244.818Z" fill="#190D26"/>
<path d="M172.099 139.87C172.951 140.056 173.825 141.196 173.871 142.29C173.91 143.269 173.03 144.305 172.088 144.398C171.4 144.465 170.449 144.857 170.074 144.55C169.213 143.842 168.578 142.829 167.989 141.856C167.873 141.667 168.3 140.857 168.618 140.747C169.743 140.358 170.934 140.149 172.099 139.87ZM172.748 141.763C172.652 141.662 172.556 141.56 172.46 141.458C171.464 141.706 170.469 141.952 169.434 142.208C169.862 142.86 170.248 143.453 170.697 144.138C171.411 143.311 172.079 142.536 172.745 141.763H172.748Z" fill="#190D26"/>
<path d="M272.974 257.053C273.391 257.504 273.725 257.865 274.071 258.243C272.715 260.395 270.703 261.326 268.353 261.755C264.048 262.542 260.348 261.295 257.129 258.457C256.759 258.133 255.789 257.687 256.852 256.971C259.795 261.061 267.454 263.315 272.971 257.053H272.974Z" fill="#190D26"/>
<path d="M269.372 247.397C268.385 245.845 267.4 244.29 266.365 242.66C267.953 242.606 269.733 245.173 269.731 247.255C269.612 247.3 269.49 247.348 269.372 247.393V247.397Z" fill="#190D26"/>
<path d="M269.797 244.968C269.272 243.941 268.744 242.914 268.22 241.887C268.4 241.802 268.584 241.715 268.764 241.63C269.241 242.68 269.721 243.729 270.197 244.779C270.065 244.843 269.929 244.905 269.797 244.97V244.968Z" fill="#190D26"/>
</svg>
